<svg width="47" height="75" viewBox="0 0 47 75" fill="#3E54FB" xmlns="http://www.w3.org/2000/svg">
  <path
    d="M47 51.0504C47 42.0168 38.4356 32.563 32.5867 22.0588C26.7378 11.9748 23.3956 -1.03178e-06 23.3956 -1.03178e-06C23.3956 -1.03178e-06 19.4267 12.1849 13.7867 22.2689C7.72889 32.7731 1.7237e-06 42.6471 1.3472e-06 51.2605C7.77846e-07 64.2857 10.4444 75 23.6044 75C36.5556 74.7899 47 64.2857 47 51.0504ZM11.0711 44.1176C11.0711 39.7059 15.2489 34.4538 18.3822 28.9916C21.3067 23.7395 23.3956 17.437 23.3956 17.437C23.3956 17.437 25.0667 23.7395 28.2 28.9916C31.3333 34.4538 35.72 39.2857 35.72 44.1176C35.72 51.0504 30.2889 56.5126 23.3956 56.5126C16.5022 56.5126 11.0711 51.0504 11.0711 44.1176Z" />
</svg>
