<svg width="460" height="440" viewBox="0 0 460 440" fill="none" xmlns="http://www.w3.org/2000/svg">
<path d="M188.753 34.2799C293.306 7.16202 327.75 78.8999 370.875 148.59C414 218.28 458.937 305.127 384.531 359.654H74.5485C74.5485 359.654 29.2845 348.167 28.52 287.195C27.9579 242.343 72.7775 236.261 87.4488 167.47C102.12 98.6799 135.546 48.0799 188.753 34.2799Z" fill="#3E54FB"/>
<path opacity="0.7" d="M188.753 34.2799C293.306 7.16202 327.75 78.8999 370.875 148.59C414 218.28 458.937 305.127 384.531 359.654H74.5485C74.5485 359.654 29.2845 348.167 28.52 287.195C27.9579 242.343 72.7775 236.261 87.4488 167.47C102.12 98.6799 135.546 48.0799 188.753 34.2799Z" fill="white"/>
<path d="M380.246 252.259H356.22C355.583 252.259 355.066 252.775 355.066 253.414V260.773C355.066 261.411 355.583 261.928 356.22 261.928H357.787C357.212 262.95 356.321 264.596 356.544 264.596C356.793 264.596 359.301 262.779 360.465 261.928H380.246C380.883 261.928 381.401 261.411 381.401 260.773V253.414C381.401 252.775 380.884 252.259 380.246 252.259Z" stroke="#263238" stroke-miterlimit="10" stroke-linecap="round" stroke-linejoin="round"/>
<path d="M374.062 266.258H398.087C398.724 266.258 399.241 266.775 399.241 267.413V274.772C399.241 275.409 398.724 275.926 398.087 275.926H396.52C397.095 276.948 397.986 278.595 397.763 278.595C397.513 278.595 395.006 276.778 393.842 275.926H374.062C373.424 275.926 372.906 275.409 372.906 274.772V267.413C372.906 266.775 373.423 266.258 374.062 266.258Z" stroke="#263238" stroke-miterlimit="10" stroke-linecap="round" stroke-linejoin="round"/>
<path d="M374.062 237.133H398.087C398.724 237.133 399.241 237.65 399.241 238.287V245.646C399.241 246.284 398.724 246.801 398.087 246.801H396.52C397.095 247.823 397.986 249.47 397.763 249.47C397.513 249.47 395.006 247.653 393.842 246.801H374.062C373.424 246.801 372.906 246.285 372.906 245.646V238.287C372.906 237.65 373.423 237.133 374.062 237.133Z" stroke="#263238" stroke-miterlimit="10" stroke-linecap="round" stroke-linejoin="round"/>
<path d="M87.4488 194.032C88.1011 190.16 85.215 187.364 81.8396 187.391C78.5506 187.417 75.6452 192.868 75.6452 192.868C75.6452 192.868 71.7389 188.963 68.3091 188.621C64.745 188.266 61.7366 192.007 63.3466 196.891C65.6733 203.946 76.36 208.568 76.36 208.568C76.36 208.568 86.135 201.835 87.4488 194.032Z" stroke="#263238" stroke-miterlimit="10" stroke-linecap="round" stroke-linejoin="round"/>
<path d="M64.2592 207.709C63.7836 205.684 61.8001 204.909 60.156 205.614C58.5534 206.301 58.2507 209.56 58.2507 209.56C58.2507 209.56 55.5404 208.453 53.7942 208.989C51.98 209.546 51.2762 211.991 53.0647 214.048C55.6489 217.02 61.8203 217.089 61.8203 217.089C61.8203 217.089 65.2169 211.793 64.2592 207.709Z" stroke="#263238" stroke-miterlimit="10" stroke-linecap="round" stroke-linejoin="round"/>
<path d="M70.1555 212.264C60.9224 221.747 66.9778 234.956 76.67 234.797C87.6465 234.617 86.7578 216.793 81.5994 225C76.4409 233.206 89.3651 247.094 96.14 239.086" stroke="#263238" stroke-miterlimit="10" stroke-linecap="round" stroke-linejoin="round"/>
<path d="M283.317 126.013C283.317 103.758 259.342 85.7163 229.768 85.7163C200.194 85.7163 176.219 103.758 176.219 126.013C176.219 146.991 197.525 164.218 224.739 166.127L229.768 179.255L234.797 166.127C262.012 164.217 283.317 146.99 283.317 126.013Z" fill="white" stroke="#263238" stroke-miterlimit="10" stroke-linecap="round" stroke-linejoin="round"/>
<path d="M233.549 119.784V113.377L230.036 113.099C229.693 111.738 229.157 110.457 228.454 109.282L230.741 106.601L226.211 102.07L223.53 104.358C222.356 103.656 221.074 103.119 219.712 102.778L219.434 99.2634H213.027L212.748 102.778C211.386 103.119 210.106 103.656 208.932 104.358L206.251 102.07L201.719 106.601L204.007 109.282C203.304 110.456 202.769 111.738 202.426 113.098L198.912 113.377V119.784L202.426 120.063C202.768 121.423 203.304 122.705 204.007 123.879L201.719 126.561L206.251 131.091L208.932 128.804C210.106 129.507 211.387 130.042 212.748 130.384L213.027 133.898H219.434L219.712 130.384C221.074 130.042 222.355 129.506 223.53 128.804L226.211 131.091L230.741 126.561L228.454 123.879C229.157 122.705 229.693 121.423 230.036 120.062L233.549 119.784ZM216.231 122.746C212.827 122.746 210.066 119.986 210.066 116.581C210.066 113.177 212.827 110.417 216.231 110.417C219.636 110.417 222.396 113.177 222.396 116.581C222.396 119.986 219.636 122.746 216.231 122.746Z" fill="#3E54FB" stroke="#263238" stroke-miterlimit="10" stroke-linecap="round" stroke-linejoin="round"/>
<path d="M260.621 127.65V122.695L257.903 122.481C257.638 121.427 257.225 120.437 256.681 119.529L258.451 117.456L254.947 113.952L252.873 115.721C251.964 115.179 250.975 114.764 249.922 114.499L249.705 111.781H244.751L244.538 114.499C243.483 114.764 242.493 115.178 241.585 115.721L239.512 113.952L236.007 117.456L237.778 119.529C237.233 120.437 236.818 121.427 236.554 122.481L233.837 122.695V127.65L236.554 127.865C236.818 128.918 237.233 129.91 237.778 130.817L236.007 132.889L239.512 136.394L241.585 134.625C242.493 135.168 243.483 135.583 244.538 135.847L244.751 138.565H249.705L249.922 135.847C250.976 135.583 251.964 135.169 252.873 134.625L254.947 136.394L258.451 132.889L256.681 130.817C257.225 129.908 257.638 128.918 257.903 127.864L260.621 127.65ZM247.229 129.942C244.595 129.942 242.461 127.807 242.461 125.173C242.461 122.54 244.594 120.406 247.229 120.406C249.861 120.406 251.996 122.539 251.996 125.173C251.996 127.806 249.862 129.942 247.229 129.942Z" fill="#3E54FB"/>
<mask id="mask0_1585_20438" style="mask-type:luminance" maskUnits="userSpaceOnUse" x="233" y="111" width="28" height="28">
<path d="M260.621 127.65V122.695L257.903 122.481C257.638 121.427 257.225 120.437 256.681 119.529L258.451 117.456L254.947 113.952L252.873 115.721C251.964 115.179 250.975 114.764 249.922 114.499L249.705 111.781H244.751L244.538 114.499C243.483 114.764 242.493 115.178 241.585 115.721L239.512 113.952L236.007 117.456L237.778 119.529C237.233 120.437 236.818 121.427 236.554 122.481L233.837 122.695V127.65L236.554 127.865C236.818 128.918 237.233 129.91 237.778 130.817L236.007 132.889L239.512 136.394L241.585 134.625C242.493 135.168 243.483 135.583 244.538 135.847L244.751 138.565H249.705L249.922 135.847C250.976 135.583 251.964 135.169 252.873 134.625L254.947 136.394L258.451 132.889L256.681 130.817C257.225 129.908 257.638 128.918 257.903 127.864L260.621 127.65ZM247.229 129.942C244.595 129.942 242.461 127.807 242.461 125.173C242.461 122.54 244.594 120.406 247.229 120.406C249.861 120.406 251.996 122.539 251.996 125.173C251.996 127.806 249.862 129.942 247.229 129.942Z" fill="white"/>
</mask>
<g mask="url(#mask0_1585_20438)">
<path opacity="0.5" d="M260.621 127.65V122.695L257.903 122.481C257.638 121.427 257.225 120.437 256.681 119.529L258.451 117.456L254.947 113.952L252.873 115.721C251.964 115.179 250.975 114.764 249.922 114.499L249.705 111.781H244.751L244.538 114.499C243.483 114.764 242.493 115.178 241.585 115.721L239.512 113.952L236.007 117.456L237.778 119.529C237.233 120.437 236.818 121.427 236.554 122.481L233.837 122.695V127.65L236.554 127.865C236.818 128.918 237.233 129.91 237.778 130.817L236.007 132.889L239.512 136.394L241.585 134.625C242.493 135.168 243.483 135.583 244.538 135.847L244.751 138.565H249.705L249.922 135.847C250.976 135.583 251.964 135.169 252.873 134.625L254.947 136.394L258.451 132.889L256.681 130.817C257.225 129.908 257.638 128.918 257.903 127.864L260.621 127.65ZM247.229 129.942C244.595 129.942 242.461 127.807 242.461 125.173C242.461 122.54 244.594 120.406 247.229 120.406C249.861 120.406 251.996 122.539 251.996 125.173C251.996 127.806 249.862 129.942 247.229 129.942Z" fill="white"/>
</g>
<path d="M260.621 127.65V122.695L257.903 122.481C257.638 121.427 257.225 120.437 256.681 119.529L258.451 117.456L254.947 113.952L252.873 115.721C251.964 115.179 250.975 114.764 249.922 114.499L249.705 111.781H244.751L244.538 114.499C243.483 114.764 242.493 115.178 241.585 115.721L239.512 113.952L236.007 117.456L237.778 119.529C237.233 120.437 236.818 121.427 236.554 122.481L233.837 122.695V127.65L236.554 127.865C236.818 128.918 237.233 129.91 237.778 130.817L236.007 132.889L239.512 136.394L241.585 134.625C242.493 135.168 243.483 135.583 244.538 135.847L244.751 138.565H249.705L249.922 135.847C250.976 135.583 251.964 135.169 252.873 134.625L254.947 136.394L258.451 132.889L256.681 130.817C257.225 129.908 257.638 128.918 257.903 127.864L260.621 127.65ZM247.229 129.942C244.595 129.942 242.461 127.807 242.461 125.173C242.461 122.54 244.594 120.406 247.229 120.406C249.861 120.406 251.996 122.539 251.996 125.173C251.996 127.806 249.862 129.942 247.229 129.942Z" stroke="#263238" stroke-miterlimit="10" stroke-linecap="round" stroke-linejoin="round"/>
<path d="M237.267 144.914V141.351L235.316 141.197C235.123 140.44 234.827 139.728 234.435 139.075L235.707 137.583L233.189 135.064L231.699 136.336C231.045 135.946 230.334 135.647 229.577 135.456L229.422 133.503H225.859L225.704 135.456C224.948 135.647 224.235 135.945 223.581 136.336L222.091 135.063L219.573 137.582L220.844 139.073C220.454 139.726 220.156 140.438 219.965 141.195L218.012 141.35V144.913L219.965 145.068C220.156 145.824 220.454 146.537 220.844 147.189L219.573 148.68L222.091 151.199L223.581 149.927C224.235 150.318 224.947 150.616 225.704 150.807L225.859 152.761H229.422L229.577 150.807C230.333 150.616 231.045 150.318 231.699 149.927L233.189 151.199L235.707 148.68L234.435 147.189C234.827 146.536 235.125 145.824 235.316 145.067L237.267 144.914ZM227.641 146.561C225.748 146.561 224.212 145.027 224.212 143.133C224.212 141.239 225.748 139.705 227.641 139.705C229.534 139.705 231.069 141.239 231.069 143.133C231.069 145.027 229.533 146.561 227.641 146.561Z" fill="#3E54FB"/>
<mask id="mask1_1585_20438" style="mask-type:luminance" maskUnits="userSpaceOnUse" x="218" y="133" width="20" height="20">
<path d="M237.267 144.914V141.351L235.316 141.197C235.123 140.44 234.827 139.728 234.435 139.075L235.707 137.583L233.189 135.064L231.699 136.336C231.045 135.946 230.334 135.647 229.577 135.456L229.422 133.503H225.859L225.704 135.456C224.948 135.647 224.235 135.945 223.581 136.336L222.091 135.063L219.573 137.582L220.844 139.073C220.454 139.726 220.156 140.438 219.965 141.195L218.012 141.35V144.913L219.965 145.068C220.156 145.824 220.454 146.537 220.844 147.189L219.573 148.68L222.091 151.199L223.581 149.927C224.235 150.318 224.947 150.616 225.704 150.807L225.859 152.761H229.422L229.577 150.807C230.333 150.616 231.045 150.318 231.699 149.927L233.189 151.199L235.707 148.68L234.435 147.189C234.827 146.536 235.125 145.824 235.316 145.067L237.267 144.914ZM227.641 146.561C225.748 146.561 224.212 145.027 224.212 143.133C224.212 141.239 225.748 139.705 227.641 139.705C229.534 139.705 231.069 141.239 231.069 143.133C231.069 145.027 229.533 146.561 227.641 146.561Z" fill="white"/>
</mask>
<g mask="url(#mask1_1585_20438)">
<path opacity="0.7" d="M237.267 144.914V141.351L235.316 141.197C235.123 140.44 234.827 139.728 234.435 139.075L235.707 137.583L233.189 135.064L231.699 136.336C231.045 135.946 230.334 135.647 229.577 135.456L229.422 133.503H225.859L225.704 135.456C224.948 135.647 224.235 135.945 223.581 136.336L222.091 135.063L219.573 137.582L220.844 139.073C220.454 139.726 220.156 140.438 219.965 141.195L218.012 141.35V144.913L219.965 145.068C220.156 145.824 220.454 146.537 220.844 147.189L219.573 148.68L222.091 151.199L223.581 149.927C224.235 150.318 224.947 150.616 225.704 150.807L225.859 152.761H229.422L229.577 150.807C230.333 150.616 231.045 150.318 231.699 149.927L233.189 151.199L235.707 148.68L234.435 147.189C234.827 146.536 235.125 145.824 235.316 145.067L237.267 144.914ZM227.641 146.561C225.748 146.561 224.212 145.027 224.212 143.133C224.212 141.239 225.748 139.705 227.641 139.705C229.534 139.705 231.069 141.239 231.069 143.133C231.069 145.027 229.533 146.561 227.641 146.561Z" fill="white"/>
</g>
<path d="M237.267 144.914V141.351L235.316 141.197C235.123 140.44 234.827 139.728 234.435 139.075L235.707 137.583L233.189 135.064L231.699 136.336C231.045 135.946 230.334 135.647 229.577 135.456L229.422 133.503H225.859L225.704 135.456C224.948 135.647 224.235 135.945 223.581 136.336L222.091 135.063L219.573 137.582L220.844 139.073C220.454 139.726 220.156 140.438 219.965 141.195L218.012 141.35V144.913L219.965 145.068C220.156 145.824 220.454 146.537 220.844 147.189L219.573 148.68L222.091 151.199L223.581 149.927C224.235 150.318 224.947 150.616 225.704 150.807L225.859 152.761H229.422L229.577 150.807C230.333 150.616 231.045 150.318 231.699 149.927L233.189 151.199L235.707 148.68L234.435 147.189C234.827 146.536 235.125 145.824 235.316 145.067L237.267 144.914ZM227.641 146.561C225.748 146.561 224.212 145.027 224.212 143.133C224.212 141.239 225.748 139.705 227.641 139.705C229.534 139.705 231.069 141.239 231.069 143.133C231.069 145.027 229.533 146.561 227.641 146.561Z" stroke="#263238" stroke-miterlimit="10" stroke-linecap="round" stroke-linejoin="round"/>
<path d="M315.128 260.223L308.596 265.2C298.42 261.281 299.074 260.398 289.34 258.99C284.299 258.263 273.857 258.567 265.08 259.027C257.149 259.432 250.571 259.965 250.571 259.965C250.571 259.965 269.974 240.682 275.31 237.821C280.563 235.015 304.079 224.922 304.815 224.61C304.824 224.61 304.833 224.6 304.833 224.6C304.833 224.6 322.488 244.27 315.128 260.223Z" fill="#3E54FB"/>
<path opacity="0.2" d="M315.128 260.223L308.596 265.2C298.42 261.281 299.074 260.398 289.34 258.99C284.298 258.263 273.856 258.567 265.08 259.027C276 251.474 305.532 257.665 305.532 257.665C305.532 257.665 300.96 251.842 300.601 240.038C300.251 228.676 304.492 224.886 304.814 224.61C304.824 224.61 304.833 224.6 304.833 224.6C304.833 224.6 322.488 244.27 315.128 260.223Z" fill="#363849"/>
<path d="M250.57 259.969C250.57 259.969 269.978 240.681 275.31 237.825C280.642 234.969 304.835 224.6 304.835 224.6C304.835 224.6 322.484 244.271 315.129 260.223L308.595 265.198" stroke="#263238" stroke-miterlimit="10" stroke-linecap="round" stroke-linejoin="round"/>
<path d="M343.822 229.909L314.18 256.819C300.27 244.978 304.75 227.149 304.75 227.149L315.404 219.669L328.265 210.635C328.265 210.635 335.239 213.836 340.05 218.51C343.408 221.785 345.708 225.778 343.822 229.909Z" fill="white"/>
<mask id="mask2_1585_20438" style="mask-type:luminance" maskUnits="userSpaceOnUse" x="304" y="210" width="41" height="47">
<path d="M343.822 229.909L314.18 256.819C300.27 244.978 304.75 227.149 304.75 227.149L315.404 219.669L328.265 210.635C328.265 210.635 335.239 213.836 340.05 218.51C343.408 221.785 345.708 225.778 343.822 229.909Z" fill="white"/>
</mask>
<g mask="url(#mask2_1585_20438)">
<path opacity="0.2" d="M340.05 218.51C339.627 219.872 338.661 221.252 336.987 222.632C327.4 230.571 319.562 224.564 315.404 219.669L328.265 210.635C328.265 210.635 335.239 213.836 340.05 218.51Z" fill="#3E54FB"/>
</g>
<path d="M343.822 229.909L314.18 256.819C300.27 244.978 304.75 227.149 304.75 227.149L315.404 219.669L328.265 210.635C328.265 210.635 335.239 213.836 340.05 218.51C343.408 221.785 345.708 225.778 343.822 229.909Z" stroke="#263238" stroke-miterlimit="10" stroke-linecap="round" stroke-linejoin="round"/>
<path d="M331.862 226.91C331.862 226.91 326.986 225.806 323.417 218.906C319.847 211.996 320.261 179.511 321.062 173.071C321.862 166.631 334.199 163.089 334.779 169.566C334.871 170.55 335.248 172.482 335.809 175.086C336.545 178.426 337.576 182.869 338.68 187.782C342.396 204.241 346.969 226.036 343.822 229.909" fill="white"/>
<mask id="mask3_1585_20438" style="mask-type:luminance" maskUnits="userSpaceOnUse" x="320" y="166" width="25" height="64">
<path d="M331.862 226.91C331.862 226.91 326.986 225.806 323.417 218.906C319.847 211.996 320.261 179.511 321.062 173.071C321.862 166.631 334.199 163.089 334.779 169.566C334.871 170.55 335.248 172.482 335.809 175.086C336.545 178.426 337.576 182.869 338.68 187.782C342.396 204.241 346.969 226.036 343.822 229.909" fill="white"/>
</mask>
<g mask="url(#mask3_1585_20438)">
<path opacity="0.2" d="M338.68 187.782C333.224 183.743 329.36 176.144 329.36 176.144L335.809 175.086C336.545 178.426 337.576 182.869 338.68 187.782Z" fill="#3E54FB"/>
</g>
<path d="M331.862 226.91C331.862 226.91 326.986 225.806 323.417 218.906C319.847 211.996 320.261 179.511 321.062 173.071C321.862 166.631 334.199 163.089 334.779 169.566C334.871 170.55 335.248 172.482 335.809 175.086C336.545 178.426 337.576 182.869 338.68 187.782C342.396 204.241 346.969 226.036 343.822 229.909" stroke="#263238" stroke-miterlimit="10" stroke-linecap="round" stroke-linejoin="round"/>
<path d="M370.18 129.942C370.18 129.942 370.173 130.013 370.156 130.119C369.678 135.335 363.292 134.348 354.872 135.803C348.459 136.907 340.078 142.096 333.923 146.475C329.075 149.916 325.616 152.851 325.616 152.851C325.616 152.851 318.55 148.149 312.165 135.076C312.165 135.076 335.276 120.568 337.971 102.619C340.096 88.5426 360.493 102.333 368.166 121.58C369.693 125.397 370.309 128.065 370.18 129.942Z" fill="white"/>
<mask id="mask4_1585_20438" style="mask-type:luminance" maskUnits="userSpaceOnUse" x="312" y="96" width="59" height="57">
<path d="M370.18 129.942C370.18 129.942 370.173 130.013 370.156 130.119C369.678 135.335 363.292 134.348 354.872 135.803C348.459 136.907 340.078 142.096 333.923 146.475C329.075 149.916 325.616 152.851 325.616 152.851C325.616 152.851 318.55 148.149 312.165 135.076C312.165 135.076 335.276 120.568 337.971 102.619C340.096 88.5426 360.493 102.333 368.166 121.58C369.693 125.397 370.309 128.065 370.18 129.942Z" fill="white"/>
</mask>
<g mask="url(#mask4_1585_20438)">
<path opacity="0.15" d="M370.156 130.119C369.678 135.335 363.292 134.347 354.872 135.803C348.459 136.907 340.078 142.096 333.923 146.475C331.117 144.819 329.572 143.218 330.197 141.829C333.04 135.527 343.731 133.503 343.731 133.503C343.731 133.503 342.82 129.372 344.485 127.376C346.15 125.37 352.277 129.372 361.017 132.482C368.861 135.277 370.002 131.03 370.156 130.119Z" fill="#363849"/>
</g>
<path d="M370.18 129.942C370.18 129.942 370.173 130.013 370.156 130.119C369.678 135.335 363.292 134.348 354.872 135.803C348.459 136.907 340.078 142.096 333.923 146.475C329.075 149.916 325.616 152.851 325.616 152.851C325.616 152.851 318.55 148.149 312.165 135.076C312.165 135.076 335.276 120.568 337.971 102.619C340.096 88.5426 360.493 102.333 368.166 121.58C369.693 125.397 370.309 128.065 370.18 129.942Z" stroke="#263238" stroke-miterlimit="10" stroke-linecap="round" stroke-linejoin="round"/>
<path d="M346.104 114.275C351.758 112.136 353.943 108.29 355.032 109.157C356.122 110.024 360.048 112.879 359.412 114.546C358.776 116.213 353.692 122.115 353.184 123.168" stroke="#263238" stroke-miterlimit="10" stroke-linecap="round" stroke-linejoin="round"/>
<path d="M343.47 99.2708C340.424 99.556 340.832 107.571 348.291 117.421C355.75 127.272 363.12 131.777 366.391 130.649C369.661 129.521 367.39 125.232 367.39 125.232" stroke="#263238" stroke-miterlimit="10" stroke-linecap="round" stroke-linejoin="round"/>
<path d="M336.223 146.539C336.223 146.539 322.028 157.257 319.019 157.155C316.002 157.063 311.88 156.98 307.915 151.69C304.851 147.596 305.302 144.064 306.185 141.57C306.434 140.834 306.728 140.2 306.976 139.657C307.593 138.314 319.332 126.492 319.332 126.492L322.248 127.265C322.248 127.265 324.144 137.872 335.699 145.232L336.223 146.539Z" fill="#3E54FB"/>
<mask id="mask5_1585_20438" style="mask-type:luminance" maskUnits="userSpaceOnUse" x="305" y="126" width="32" height="32">
<path d="M336.223 146.539C336.223 146.539 322.028 157.257 319.019 157.155C316.002 157.063 311.88 156.98 307.915 151.69C304.851 147.596 305.302 144.064 306.185 141.57C306.434 140.834 306.728 140.2 306.976 139.657C307.593 138.314 319.332 126.492 319.332 126.492L322.248 127.265C322.248 127.265 324.144 137.872 335.699 145.232L336.223 146.539Z" fill="white"/>
</mask>
<g mask="url(#mask5_1585_20438)">
<path opacity="0.2" d="M336.223 146.538C336.223 146.538 322.028 157.256 319.019 157.155C316.002 157.063 311.88 156.98 307.915 151.69C304.851 147.596 305.302 144.064 306.185 141.57C306.921 144.45 308.338 148.581 310.61 150.218C314.244 152.85 329.36 144.395 329.36 144.395C329.36 144.395 320.97 134.063 322.248 127.264C322.248 127.264 324.144 137.872 335.699 145.232L336.223 146.538Z" fill="#363849"/>
</g>
<path d="M336.223 146.539C336.223 146.539 322.028 157.257 319.019 157.155C316.002 157.063 311.88 156.98 307.915 151.69C304.851 147.596 305.302 144.064 306.185 141.57C306.434 140.834 306.728 140.2 306.976 139.657C307.593 138.314 319.332 126.492 319.332 126.492L322.248 127.265C322.248 127.265 324.144 137.872 335.699 145.232L336.223 146.539Z" stroke="#263238" stroke-miterlimit="10" stroke-linecap="round" stroke-linejoin="round"/>
<path opacity="0.15" d="M343.47 99.2708C340.424 99.556 340.832 107.571 348.291 117.421C355.75 127.272 363.12 131.777 366.391 130.649C369.661 129.521 367.39 125.232 367.39 125.232C367.39 125.232 365.374 116.788 358.11 109.032C349.6 99.9451 343.47 99.2708 343.47 99.2708Z" fill="#363849"/>
<path d="M347.63 163.136C347.3 167.22 336.401 182.1 329.36 178.874L347.63 163.136Z" fill="white"/>
<path d="M347.63 163.136C347.3 167.22 336.401 182.1 329.36 178.874" stroke="#263238" stroke-miterlimit="10" stroke-linecap="round" stroke-linejoin="round"/>
<path d="M321.195 155.95C321.195 155.95 326.799 171.561 330.851 174.426C334.903 177.294 345.365 168.581 344.425 167.105C343.484 165.628 333.366 156.235 331.77 148.59C331.77 148.59 327.003 149.254 321.195 155.95Z" fill="#3E54FB"/>
<mask id="mask6_1585_20438" style="mask-type:luminance" maskUnits="userSpaceOnUse" x="321" y="148" width="24" height="28">
<path d="M321.195 155.95C321.195 155.95 326.799 171.561 330.851 174.426C334.903 177.294 345.365 168.581 344.425 167.105C343.484 165.628 333.366 156.235 331.77 148.59C331.77 148.59 327.003 149.254 321.195 155.95Z" fill="white"/>
</mask>
<g mask="url(#mask6_1585_20438)">
<path opacity="0.2" d="M321.195 155.95C321.195 155.95 326.799 171.561 330.851 174.426C334.903 177.294 345.365 168.581 344.425 167.105C343.484 165.628 333.366 156.235 331.77 148.59C331.77 148.59 327.003 149.254 321.195 155.95Z" fill="#363849"/>
</g>
<path d="M321.195 155.95C321.195 155.95 326.799 171.561 330.851 174.426C334.903 177.294 345.365 168.581 344.425 167.105C343.484 165.628 333.366 156.235 331.77 148.59C331.77 148.59 327.003 149.254 321.195 155.95Z" stroke="#263238" stroke-miterlimit="10" stroke-linecap="round" stroke-linejoin="round"/>
<path d="M347.4 164.439C348.355 161.219 346.023 162.091 346.397 159.066C346.773 156.041 344.828 156.049 344.212 152.926C343.598 149.805 341.673 150.107 340.552 147.534C339.429 144.961 336.618 145.99 333.895 147.245C331.171 148.5 327.514 154.482 327.514 154.482C326.975 158.329 330.195 157.53 330.195 157.53C328.058 161.484 331.62 162.352 331.62 162.352C331.431 166.602 333.999 166.075 333.999 166.075C333.999 166.075 333.868 168.057 335.796 168.379C337.031 168.586 346.446 167.658 347.4 164.439Z" fill="white" stroke="#263238" stroke-miterlimit="10" stroke-linecap="round" stroke-linejoin="round"/>
<path d="M330.195 157.529C330.195 157.529 335.397 152.036 336.99 151.415" stroke="#263238" stroke-miterlimit="10" stroke-linecap="round" stroke-linejoin="round"/>
<path d="M331.62 162.351C331.62 162.351 334.761 158.839 339.97 157.069" stroke="#263238" stroke-miterlimit="10" stroke-linecap="round" stroke-linejoin="round"/>
<path d="M333.999 166.074C333.999 166.074 340.899 162.673 341.913 162.358" stroke="#263238" stroke-miterlimit="10" stroke-linecap="round" stroke-linejoin="round"/>
<path d="M324.875 178.145C324.875 178.145 319.815 173.465 318.895 171.475C317.975 169.485 316.201 160.928 317.466 158.628C318.731 156.328 322.453 152.5 323.031 150.66C323.61 148.82 326.826 152.853 323.15 160.205C323.15 160.205 327.547 165.531 326.826 171.36" fill="white"/>
<path d="M324.875 178.145C324.875 178.145 319.815 173.465 318.895 171.475C317.975 169.485 316.201 160.928 317.466 158.628C318.731 156.328 322.453 152.5 323.031 150.66C323.61 148.82 326.826 152.853 323.15 160.205C323.15 160.205 327.547 165.531 326.826 171.36" stroke="#263238" stroke-miterlimit="10" stroke-linecap="round" stroke-linejoin="round"/>
<path opacity="0.15" d="M370.18 129.942C370.18 129.942 370.173 130.013 370.156 130.119C370.161 130.057 370.177 130.005 370.18 129.942Z" fill="#363849"/>
<path d="M321.862 314.328C321.862 314.328 319.838 315.147 316.922 311.503C311.374 304.567 303.076 287.905 297.62 279.92C295.283 276.497 288.825 273.13 281.842 270.306C271.041 265.945 258.989 262.863 258.989 262.863C258.989 262.863 288.374 261.051 295.835 263.295C302.294 265.227 325.165 278.31 331.688 282.073C332.801 282.717 333.436 283.085 333.436 283.085C333.436 283.085 334.42 296.94 321.862 314.328Z" fill="#3E54FB"/>
<path opacity="0.2" d="M321.862 314.328C321.862 314.328 319.838 315.147 316.922 311.504C311.374 304.567 303.076 287.906 297.62 279.92C295.283 276.498 288.825 273.13 281.842 270.306C308.494 276.396 317.943 303.15 317.943 303.15C317.943 303.15 319.36 287.961 331.688 282.073C332.801 282.717 333.436 283.085 333.436 283.085C333.436 283.085 334.42 296.94 321.862 314.328Z" fill="#363849"/>
<path d="M258.987 262.864C258.987 262.864 288.375 261.054 295.833 263.294C303.386 265.563 333.439 283.085 333.439 283.085C333.439 283.085 334.417 296.94 321.864 314.33" stroke="#263238" stroke-miterlimit="10" stroke-linecap="round" stroke-linejoin="round"/>
<path d="M370.87 326.269C369.352 327.3 366.445 327.291 362.756 326.61C359.37 325.984 355.332 324.797 351.118 323.335C336.996 318.44 320.924 310.491 320.924 310.491C320.924 310.491 320.97 291.613 332.065 284.299C332.065 284.299 346.454 294.152 355.718 296.59C363.483 298.642 370.87 326.269 370.87 326.269Z" fill="white"/>
<mask id="mask7_1585_20438" style="mask-type:luminance" maskUnits="userSpaceOnUse" x="320" y="284" width="51" height="44">
<path d="M370.87 326.269C369.352 327.3 366.445 327.291 362.756 326.61C359.37 325.984 355.332 324.797 351.118 323.335C336.996 318.44 320.924 310.491 320.924 310.491C320.924 310.491 320.97 291.613 332.065 284.299C332.065 284.299 346.454 294.152 355.718 296.59C363.483 298.642 370.87 326.269 370.87 326.269Z" fill="white"/>
</mask>
<g mask="url(#mask7_1585_20438)">
<path opacity="0.2" d="M362.756 326.61C359.37 325.984 355.332 324.798 351.118 323.335C349.048 313.776 355.065 303.15 355.065 303.15C355.295 313.334 359.242 321.403 362.756 326.61Z" fill="#3E54FB"/>
</g>
<path d="M370.87 326.269C369.352 327.3 366.445 327.291 362.756 326.61C359.37 325.984 355.332 324.797 351.118 323.335C336.996 318.44 320.924 310.491 320.924 310.491C320.924 310.491 320.97 291.613 332.065 284.299C332.065 284.299 346.454 294.152 355.718 296.59C363.483 298.642 370.87 326.269 370.87 326.269Z" stroke="#263238" stroke-miterlimit="10" stroke-linecap="round" stroke-linejoin="round"/>
<path d="M357.626 320.824C356.793 318.854 356.159 316.395 355.715 313.383L357.626 320.824Z" fill="white"/>
<path d="M357.626 320.824C356.793 318.854 356.159 316.395 355.715 313.383" stroke="#263238" stroke-miterlimit="10" stroke-linecap="round" stroke-linejoin="round"/>
<path d="M357.631 288.938C361.712 289.581 365.47 298.374 368 301.507C368 301.507 375.205 304.865 376.433 308.033C377.66 311.201 382.575 323.888 372.83 326.495C367.225 327.995 363.041 327.731 360.132 324.764" fill="white"/>
<path d="M357.631 288.938C361.712 289.581 365.47 298.374 368 301.507C368 301.507 375.205 304.865 376.433 308.033C377.66 311.201 382.575 323.888 372.83 326.495C367.225 327.995 363.041 327.731 360.132 324.764" stroke="#263238" stroke-miterlimit="10" stroke-linecap="round" stroke-linejoin="round"/>
<path d="M358.552 276.433V276.727C358.506 279.432 357.742 284.796 356.022 294.299C354.412 303.187 354.108 303.877 353.032 304.327C351.716 304.87 342.286 306.968 338.266 307.833C337.934 307.897 337.64 307.962 337.392 308.017C336.812 308.146 335.285 307.345 335.386 306.765C335.864 303.831 339.14 277.298 340.455 276.433C342.452 275.127 355.359 273.894 356.794 274.289C357.466 274.473 358.552 275.743 358.552 276.433Z" fill="#999999"/>
<mask id="mask8_1585_20438" style="mask-type:luminance" maskUnits="userSpaceOnUse" x="335" y="274" width="24" height="35">
<path d="M358.552 276.433V276.727C358.506 279.432 357.742 284.796 356.022 294.299C354.412 303.187 354.108 303.877 353.032 304.327C351.716 304.87 342.286 306.968 338.266 307.833C337.934 307.897 337.64 307.962 337.392 308.017C336.812 308.146 335.285 307.345 335.386 306.765C335.864 303.831 339.14 277.298 340.455 276.433C342.452 275.127 355.359 273.894 356.794 274.289C357.466 274.473 358.552 275.743 358.552 276.433Z" fill="white"/>
</mask>
<g mask="url(#mask8_1585_20438)">
<path opacity="0.2" d="M358.552 276.728C358.506 279.432 357.742 284.796 356.022 294.3C354.412 303.187 354.108 303.877 353.032 304.328C351.716 304.87 342.286 306.968 338.266 307.833C338.753 303.996 340.225 293.278 343.261 278.595L358.552 276.728Z" fill="#363849"/>
</g>
<path d="M358.552 276.433V276.727C358.506 279.432 357.742 284.796 356.022 294.299C354.412 303.187 354.108 303.877 353.032 304.327C351.716 304.87 342.286 306.968 338.266 307.833C337.934 307.897 337.64 307.962 337.392 308.017C336.812 308.146 335.285 307.345 335.386 306.765C335.864 303.831 339.14 277.298 340.455 276.433C342.452 275.127 355.359 273.894 356.794 274.289C357.466 274.473 358.552 275.743 358.552 276.433Z" stroke="#263238" stroke-miterlimit="10" stroke-linecap="round" stroke-linejoin="round"/>
<path d="M338.08 305.95C338.08 305.95 342.372 280.958 342.756 279.424C343.14 277.89 343.523 278.503 356.403 276.817" stroke="#263238" stroke-miterlimit="10" stroke-linecap="round" stroke-linejoin="round"/>
<path d="M355.713 313.383C355.713 313.383 349.044 315.763 349.503 311.699C349.503 311.699 347.971 310.627 347.971 308.94C347.971 307.254 349.044 305.414 349.044 305.414C349.044 305.414 346.513 309.783 344.367 307.253C343.804 306.589 346.09 301.839 346.09 301.839C346.09 301.839 343.983 303.113 342.987 300.737C342.683 300.013 346.197 293.476 346.964 292.993C349.541 291.369 356.249 287.917 358.55 289.228C360.851 290.54 361.617 294.68 362.997 296.214C364.377 297.748 363.61 302.96 362.997 306.64" fill="white"/>
<path d="M355.713 313.383C355.713 313.383 349.044 315.763 349.503 311.699C349.503 311.699 347.971 310.627 347.971 308.94C347.971 307.254 349.044 305.414 349.044 305.414C349.044 305.414 346.513 309.783 344.367 307.253C343.804 306.589 346.09 301.839 346.09 301.839C346.09 301.839 343.983 303.113 342.987 300.737C342.683 300.013 346.197 293.476 346.964 292.993C349.541 291.369 356.249 287.917 358.55 289.228C360.851 290.54 361.617 294.68 362.997 296.214C364.377 297.748 363.61 302.96 362.997 306.64" stroke="#263238" stroke-miterlimit="10" stroke-linecap="round" stroke-linejoin="round"/>
<path d="M346.09 301.839C346.09 301.839 348.507 297.669 349.197 297.133C349.887 296.597 355.714 294.909 355.714 294.909" fill="white"/>
<path d="M346.09 301.839C346.09 301.839 348.507 297.669 349.197 297.133C349.887 296.597 355.714 294.909 355.714 294.909" stroke="#263238" stroke-miterlimit="10" stroke-linecap="round" stroke-linejoin="round"/>
<path d="M349.044 305.414C350.501 303.803 351.344 301.945 351.957 301.839C352.571 301.733 357.248 301.042 357.631 300.889" fill="white"/>
<path d="M349.044 305.414C350.501 303.803 351.344 301.945 351.957 301.839C352.571 301.733 357.248 301.042 357.631 300.889" stroke="#263238" stroke-miterlimit="10" stroke-linecap="round" stroke-linejoin="round"/>
<path d="M349.259 311.501C350.884 309.63 353.415 307.713 353.952 307.713C354.488 307.713 357.479 307.33 357.632 307.253" fill="white"/>
<path d="M349.259 311.501C350.884 309.63 353.415 307.713 353.952 307.713C354.488 307.713 357.479 307.33 357.632 307.253" stroke="#263238" stroke-miterlimit="10" stroke-linecap="round" stroke-linejoin="round"/>
<path d="M356.795 312.467C356.795 312.467 355.407 313.692 353.337 313.31L356.795 312.467Z" fill="white"/>
<path d="M356.795 312.467C356.795 312.467 355.407 313.692 353.337 313.31" stroke="#263238" stroke-miterlimit="10" stroke-linecap="round" stroke-linejoin="round"/>
<path d="M355.713 313.383C355.713 313.383 361.79 318.449 364.55 312.467L355.713 313.383Z" fill="white"/>
<path d="M355.713 313.383C355.713 313.383 361.79 318.449 364.55 312.467" stroke="#263238" stroke-miterlimit="10" stroke-linecap="round" stroke-linejoin="round"/>
<path d="M207 259.542C207 259.542 204.314 259.468 200.422 259.367C191.461 259.146 176.088 258.815 172.445 259.045C165.71 259.478 159.16 262.587 159.16 262.587L144.32 242.347C146.584 214.296 164.468 211.224 164.468 211.224C164.468 211.224 177.1 225.64 181.7 229.568C186.3 233.497 207 259.542 207 259.542Z" fill="#3E54FB"/>
<path opacity="0.2" d="M200.422 259.367C191.461 259.146 176.088 258.815 172.445 259.045C165.71 259.478 159.16 262.587 159.16 262.587L144.32 242.347C146.584 214.296 164.468 211.224 164.468 211.224C164.468 211.224 165.517 228.354 151.837 240.102C151.837 240.102 156.069 251.989 165.306 254.344C174.552 256.699 192.574 254.767 200.422 259.367Z" fill="#363849"/>
<path d="M207 259.543C207 259.543 186.3 233.497 181.7 229.568C177.1 225.64 164.471 211.224 164.471 211.224C164.471 211.224 146.586 214.294 144.316 242.343L159.16 262.585" stroke="#263238" stroke-miterlimit="10" stroke-linecap="round" stroke-linejoin="round"/>
<path d="M163.291 214.6C163.291 214.6 162.969 229.651 146.584 237.747L118.22 197.608C116.224 186.752 138 182.704 138 182.704L138.009 182.722L148.276 195.666L163.291 214.6Z" fill="white"/>
<mask id="mask9_1585_20438" style="mask-type:luminance" maskUnits="userSpaceOnUse" x="118" y="182" width="46" height="56">
<path d="M163.291 214.6C163.291 214.6 162.969 229.651 146.584 237.747L118.22 197.608C116.224 186.752 138 182.704 138 182.704L138.009 182.722L148.276 195.666L163.291 214.6Z" fill="white"/>
</mask>
<g mask="url(#mask9_1585_20438)">
<path opacity="0.2" d="M148.276 195.666C138.699 203.238 128.073 195.068 128.073 195.068L138.009 182.722L148.276 195.666Z" fill="#3E54FB"/>
</g>
<path d="M163.291 214.6C163.291 214.6 162.969 229.651 146.584 237.747L118.22 197.608C116.224 186.752 138 182.704 138 182.704L138.009 182.722L148.276 195.666L163.291 214.6Z" stroke="#263238" stroke-miterlimit="10" stroke-linecap="round" stroke-linejoin="round"/>
<path d="M118.22 197.608C117.061 195.124 118.22 189.098 120.281 182.115C122.645 174.102 126.187 164.81 128.791 158.167C130.226 154.478 131.376 151.608 131.864 150.2C134.016 144.064 145.112 150.504 144.32 156.944C143.52 163.384 145.838 186.08 140.696 191.904C135.544 197.736 130.548 197.608 130.548 197.608" fill="white"/>
<mask id="mask10_1585_20438" style="mask-type:luminance" maskUnits="userSpaceOnUse" x="117" y="147" width="28" height="51">
<path d="M118.22 197.608C117.061 195.124 118.22 189.098 120.281 182.115C122.645 174.102 126.187 164.81 128.791 158.167C130.226 154.478 131.376 151.608 131.864 150.2C134.016 144.064 145.112 150.504 144.32 156.944C143.52 163.384 145.838 186.08 140.696 191.904C135.544 197.736 130.548 197.608 130.548 197.608" fill="white"/>
</mask>
<g mask="url(#mask10_1585_20438)">
<path opacity="0.2" d="M136.224 154.469C136.224 154.469 132.066 179.3 128.073 180.753C126.399 181.36 123.308 181.802 120.281 182.115C122.645 174.102 126.187 164.81 128.791 158.167L136.224 154.469Z" fill="#3E54FB"/>
</g>
<path d="M118.22 197.608C117.061 195.124 118.22 189.098 120.281 182.115C122.645 174.102 126.187 164.81 128.791 158.167C130.226 154.478 131.376 151.608 131.864 150.2C134.016 144.064 145.112 150.504 144.32 156.944C143.52 163.384 145.838 186.08 140.696 191.904C135.544 197.736 130.548 197.608 130.548 197.608" stroke="#263238" stroke-miterlimit="10" stroke-linecap="round" stroke-linejoin="round"/>
<path d="M127.153 168.751C126.319 169.906 124.705 170.165 123.55 169.331L84.7871 141.324C83.6325 140.489 83.3722 138.876 84.2066 137.721L122.125 85.2416C122.96 84.087 124.573 83.8266 125.728 84.6611L164.492 112.669C165.647 113.503 165.907 115.117 165.072 116.271L127.153 168.751Z" fill="#BFBFBF" stroke="#263238" stroke-miterlimit="10"/>
<path d="M135.583 90.6354L132.215 95.2964L152.366 109.856L155.734 105.196L135.583 90.6354Z" fill="#3E54FB" stroke="#263238" stroke-miterlimit="10" stroke-linecap="round" stroke-linejoin="round"/>
<path d="M124.369 87.9165L87.4579 139L124.932 166.077L161.843 114.993L124.369 87.9165Z" fill="#3E54FB"/>
<mask id="mask11_1585_20438" style="mask-type:luminance" maskUnits="userSpaceOnUse" x="92" y="89" width="65" height="76">
<path d="M92.8144 104.327L112.604 164.167L156.502 149.649L136.712 89.8097L92.8144 104.327Z" fill="white"/>
</mask>
<g mask="url(#mask11_1585_20438)">
<path opacity="0.7" d="M124.369 87.9165L87.4579 139L124.932 166.077L161.843 114.993L124.369 87.9165Z" fill="white"/>
</g>
<path d="M124.369 87.9165L87.4579 139L124.932 166.077L161.843 114.993L124.369 87.9165Z" stroke="#263238" stroke-width="1.00006" stroke-miterlimit="10" stroke-linecap="round" stroke-linejoin="round"/>
<path d="M151.586 105.446L149.543 108.272C149.226 108.712 148.622 108.809 148.182 108.491L143.081 104.806C143.375 103.974 143.11 103.022 142.357 102.479C141.604 101.935 140.616 101.982 139.92 102.522L134.812 98.8317C134.38 98.5189 134.274 97.9098 134.593 97.4701L136.635 94.6448C136.947 94.2114 137.564 94.113 137.996 94.4258L151.367 104.086C151.806 104.402 151.898 105.013 151.586 105.446Z" stroke="#263238" stroke-miterlimit="10" stroke-linecap="round" stroke-linejoin="round"/>
<path d="M140.757 160.422C140.757 160.422 146.608 156.78 147.887 154.999C149.166 153.218 152.52 145.148 151.712 142.651C150.903 140.154 147.97 135.692 147.748 133.777C147.526 131.862 143.607 135.216 145.832 143.129C145.832 143.129 140.511 147.53 140.119 153.39" fill="white"/>
<path d="M140.757 160.422C140.757 160.422 146.608 156.78 147.887 154.999C149.166 153.218 152.52 145.148 151.712 142.651C150.903 140.154 147.97 135.692 147.748 133.777C147.526 131.862 143.607 135.216 145.832 143.129C145.832 143.129 140.511 147.53 140.119 153.39" stroke="#263238" stroke-miterlimit="10" stroke-linecap="round" stroke-linejoin="round"/>
<path d="M137.641 126.496C137.641 133.445 132.008 139.078 125.058 139.078C118.109 139.078 112.476 133.445 112.476 126.496C112.476 119.546 118.109 113.913 125.058 113.913C132.008 113.914 137.641 119.547 137.641 126.496Z" fill="white" stroke="#263238" stroke-miterlimit="10" stroke-linecap="round" stroke-linejoin="round"/>
<path d="M118.795 121.986L120.339 130.818L134.407 126.996" fill="white"/>
<path d="M118.795 121.986L120.339 130.818L134.407 126.996" stroke="#263238" stroke-miterlimit="10" stroke-linecap="round" stroke-linejoin="round"/>
<path d="M202.538 263.783C202.538 263.783 184.478 266.663 170.89 274.014C168.102 275.513 165.508 277.215 163.291 279.11C156.97 284.529 151.45 295.753 146.74 304.65C142.71 312.23 139.665 315.248 139.665 315.248C127.116 297.86 128.092 284.005 128.092 284.005C128.092 284.005 128.138 283.977 128.211 283.94C130.254 282.744 158.424 266.396 165.692 264.216C173.153 261.971 202.538 263.783 202.538 263.783Z" fill="#3E54FB"/>
<path opacity="0.2" d="M170.89 274.014C168.102 275.513 165.508 277.215 163.291 279.11C156.97 284.529 151.45 295.753 146.74 304.65C142.71 312.23 139.665 315.248 139.665 315.248C127.116 297.86 128.092 284.005 128.092 284.005C128.092 284.005 128.138 283.977 128.211 283.94C129.177 283.508 135.682 281.346 144.32 297.924C144.32 297.924 150.291 278.43 170.89 274.014Z" fill="#363849"/>
<path d="M110.225 243.896C110.225 243.896 102.33 241.848 104.69 249.244C107.052 256.641 115.513 256.405 115.513 256.405" fill="white"/>
<path d="M110.225 243.896C110.225 243.896 102.33 241.848 104.69 249.244C107.052 256.641 115.513 256.405 115.513 256.405" stroke="#263238" stroke-miterlimit="10" stroke-linecap="round" stroke-linejoin="round"/>
<path d="M202.542 263.784C202.542 263.784 173.154 261.974 165.696 264.214C158.143 266.483 128.09 284.005 128.09 284.005C128.09 284.005 127.114 297.86 139.666 315.25" stroke="#263238" stroke-miterlimit="10" stroke-linecap="round" stroke-linejoin="round"/>
<path d="M140.613 311.412C140.613 311.412 96.9036 327.245 89.7644 318.643C89.7644 318.643 93.0028 309.544 97.4004 302.598C99.7648 298.863 102.479 295.744 105.202 295.026C108.698 294.097 113.022 292.469 117.042 290.813C123.666 288.071 129.472 285.219 129.472 285.219C140.558 292.533 140.613 311.412 140.613 311.412Z" fill="white"/>
<mask id="mask12_1585_20438" style="mask-type:luminance" maskUnits="userSpaceOnUse" x="89" y="285" width="52" height="37">
<path d="M140.613 311.412C140.613 311.412 96.9036 327.245 89.7644 318.643C89.7644 318.643 93.0028 309.544 97.4004 302.598C99.7648 298.863 102.479 295.744 105.202 295.026C108.698 294.097 113.022 292.469 117.042 290.813C123.666 288.071 129.472 285.219 129.472 285.219C140.558 292.533 140.613 311.412 140.613 311.412Z" fill="white"/>
</mask>
<g mask="url(#mask12_1585_20438)">
<path opacity="0.2" d="M117.042 290.813C115.791 296.728 112.277 307.759 103.454 307.042C100.032 306.766 98.2284 304.999 97.4004 302.598C99.7648 298.863 102.479 295.744 105.202 295.026C108.698 294.097 113.022 292.469 117.042 290.813Z" fill="#3E54FB"/>
</g>
<path d="M140.613 311.412C140.613 311.412 96.9036 327.245 89.7644 318.643C89.7644 318.643 93.0028 309.544 97.4004 302.598C99.7648 298.863 102.479 295.744 105.202 295.026C108.698 294.097 113.022 292.469 117.042 290.813C123.666 288.071 129.472 285.219 129.472 285.219C140.558 292.533 140.613 311.412 140.613 311.412Z" stroke="#263238" stroke-miterlimit="10" stroke-linecap="round" stroke-linejoin="round"/>
<path d="M93.1224 320.538C82.8368 320.998 82.1836 296.784 87.354 260.821C87.354 260.821 95.2844 245.08 98.946 244.868C99.9304 244.813 101.292 244.785 102.746 244.785C106.692 244.758 111.366 244.868 111.366 244.868C111.366 244.868 113.482 253.985 113.5 257.086C113.528 261.732 111.486 262.256 111.486 262.256C111.596 266.635 108.054 267.077 104.254 266.479C104.254 266.479 104.19 266.7 103.988 267.031C103.482 267.877 102.111 269.45 98.7988 269.874C98.7436 283.904 112.369 305.146 105.156 309.783" fill="white"/>
<mask id="mask13_1585_20438" style="mask-type:luminance" maskUnits="userSpaceOnUse" x="84" y="244" width="30" height="77">
<path d="M93.1224 320.538C82.8368 320.998 82.1836 296.784 87.354 260.821C87.354 260.821 95.2844 245.08 98.946 244.868C99.9304 244.813 101.292 244.785 102.746 244.785C106.692 244.758 111.366 244.868 111.366 244.868C111.366 244.868 113.482 253.985 113.5 257.086C113.528 261.732 111.486 262.256 111.486 262.256C111.596 266.635 108.054 267.077 104.254 266.479C104.254 266.479 104.19 266.7 103.988 267.031C103.482 267.877 102.111 269.45 98.7988 269.874C98.7436 283.904 112.369 305.146 105.156 309.783" fill="white"/>
</mask>
<g mask="url(#mask13_1585_20438)">
<path opacity="0.2" d="M113.5 257.086C113.528 261.732 111.486 262.256 111.486 262.256C111.596 266.635 108.054 267.077 104.254 266.479C104.254 266.479 104.19 266.7 103.988 267.031L105.156 263.507C105.156 263.507 106.38 264.022 107.116 263.664C109.416 262.532 108.21 258.567 108.21 258.567C108.21 258.567 109.517 258.217 109.885 256.405C110.244 254.592 106.232 253.369 106.232 253.369C107.493 251.262 104.687 249.247 104.687 249.247C105.69 247.738 104.383 246.082 102.746 244.785C106.692 244.758 111.366 244.868 111.366 244.868C111.366 244.868 113.482 253.985 113.5 257.086Z" fill="#3E54FB"/>
</g>
<path d="M93.1224 320.538C82.8368 320.998 82.1836 296.784 87.354 260.821C87.354 260.821 95.2844 245.08 98.946 244.868C99.9304 244.813 101.292 244.785 102.746 244.785C106.692 244.758 111.366 244.868 111.366 244.868C111.366 244.868 113.482 253.985 113.5 257.086C113.528 261.732 111.486 262.256 111.486 262.256C111.596 266.635 108.054 267.077 104.254 266.479C104.254 266.479 104.19 266.7 103.988 267.031C103.482 267.877 102.111 269.45 98.7988 269.874C98.7436 283.904 112.369 305.146 105.156 309.783" stroke="#263238" stroke-miterlimit="10" stroke-linecap="round" stroke-linejoin="round"/>
<path d="M111.413 255.741C110.142 253.406 108.918 254.754 102.814 253.28C102.814 253.28 106.76 253.672 109.773 252.948" stroke="#263238" stroke-miterlimit="10" stroke-linecap="round" stroke-linejoin="round"/>
<path d="M102.105 248.739C102.931 249.108 106.526 248.84 108.209 248.739" stroke="#263238" stroke-miterlimit="10" stroke-linecap="round" stroke-linejoin="round"/>
<path d="M104.25 258.607C104.229 258.432 109.393 258.861 110.233 259.472C111.073 260.083 111.598 262.357 111.598 262.357" stroke="#263238" stroke-miterlimit="10" stroke-linecap="round" stroke-linejoin="round"/>
<path d="M108.209 263.505C107.824 263.86 105.158 263.505 105.158 263.505C105.158 263.505 104.984 265.289 104.251 266.483" stroke="#263238" stroke-miterlimit="10" stroke-linecap="round" stroke-linejoin="round"/>
<path d="M136.224 240.967C136.224 248.511 133.142 255.08 128.598 258.53H114.016C109.462 255.08 106.38 248.511 106.38 240.967C106.38 240.654 106.407 240.351 106.416 240.038H136.188C136.206 240.351 136.224 240.654 136.224 240.967Z" fill="#363849"/>
<mask id="mask14_1585_20438" style="mask-type:luminance" maskUnits="userSpaceOnUse" x="106" y="240" width="31" height="19">
<path d="M136.224 240.967C136.224 248.511 133.142 255.08 128.598 258.53H114.016C109.462 255.08 106.38 248.511 106.38 240.967C106.38 240.654 106.407 240.351 106.416 240.038H136.188C136.206 240.351 136.224 240.654 136.224 240.967Z" fill="white"/>
</mask>
<g mask="url(#mask14_1585_20438)">
<path opacity="0.2" d="M125.056 257.665L124.991 258.53H114.016C109.462 255.08 106.38 248.511 106.38 240.967C106.38 240.654 106.407 240.351 106.416 240.038H109.655C111.89 245.54 116.803 254.96 125.056 257.665Z" fill="#363849"/>
</g>
<path d="M136.224 240.967C136.224 248.511 133.142 255.08 128.598 258.53H114.016C109.462 255.08 106.38 248.511 106.38 240.967C106.38 240.654 106.407 240.351 106.416 240.038H136.188C136.206 240.351 136.224 240.654 136.224 240.967Z" stroke="#263238" stroke-miterlimit="10" stroke-linecap="round" stroke-linejoin="round"/>
<path d="M129.757 257.664H112.852L112.065 259.929H130.543L129.757 257.664Z" fill="#363849" stroke="#263238" stroke-miterlimit="10" stroke-linecap="round" stroke-linejoin="round"/>
<path opacity="0.2" d="M130.543 259.929L129.757 257.664H112.852L112.065 259.929" fill="#363849"/>
<path d="M116.516 221.69C113.952 226.105 120.829 230.253 117.42 236.295" stroke="#263238" stroke-miterlimit="10" stroke-linecap="round" stroke-linejoin="round"/>
<path d="M120.926 221.69C118.361 226.106 125.239 230.253 121.829 236.295" stroke="#263238" stroke-miterlimit="10" stroke-linecap="round" stroke-linejoin="round"/>
<path d="M125.645 221.69C123.081 226.106 129.959 230.253 126.549 236.295" stroke="#263238" stroke-miterlimit="10" stroke-linecap="round" stroke-linejoin="round"/>
<path d="M298.354 286.467C291.816 275.314 264.758 265.602 234.705 264.404C234.625 264.401 234.544 264.396 234.464 264.393C233.481 264.354 232.494 264.326 231.505 264.307L231.501 264.277C231 264.277 230.5 264.286 229.999 264.292C229.499 264.286 228.998 264.277 228.497 264.277L228.493 264.307C227.504 264.326 226.519 264.354 225.534 264.393C225.45 264.396 225.365 264.402 225.28 264.405C195.231 265.606 168.182 275.315 161.645 286.467C154.658 298.383 144.315 317.554 144.315 317.554C150.114 326.942 172.377 328.197 172.377 328.197L173.562 353.446H222.577H237.42H286.435L287.62 328.197C287.62 328.197 309.884 326.942 315.682 317.554C315.684 317.554 305.341 298.383 298.354 286.467Z" fill="#3E54FB" stroke="#263238" stroke-miterlimit="10" stroke-linecap="round" stroke-linejoin="round"/>
<path d="M196.825 344.347C196.825 344.347 144.799 353.078 141.054 345.948C140.677 345.231 140.429 344.375 140.3 343.409C139.076 334.807 146.537 317.842 146.537 317.842C152.324 317.29 158.396 318.79 163.254 320.565C163.263 320.575 163.263 320.575 163.263 320.565C168.912 322.645 172.923 325.119 172.96 325.23L172.573 326.076L172.445 326.343L184.598 326.729L195.472 327.079L195.721 327.088V327.107L196.825 344.347Z" fill="white"/>
<mask id="mask15_1585_20438" style="mask-type:luminance" maskUnits="userSpaceOnUse" x="140" y="317" width="57" height="32">
<path d="M196.825 344.347C196.825 344.347 144.799 353.078 141.054 345.948C140.677 345.231 140.429 344.375 140.3 343.409C139.076 334.807 146.537 317.842 146.537 317.842C152.324 317.29 158.396 318.79 163.254 320.565C163.263 320.575 163.263 320.575 163.263 320.565C168.912 322.645 172.923 325.119 172.96 325.23L172.573 326.076L172.445 326.343L184.598 326.729L195.472 327.079L195.721 327.088V327.107L196.825 344.347Z" fill="white"/>
</mask>
<g mask="url(#mask15_1585_20438)">
<path opacity="0.2" d="M172.573 326.076C160.669 326.306 156.151 327.944 156.151 327.944C156.151 327.944 159.16 323.206 163.254 320.565C163.263 320.575 163.263 320.575 163.263 320.565C168.912 322.645 172.923 325.119 172.96 325.23L172.573 326.076Z" fill="#3E54FB"/>
<path opacity="0.2" d="M196.825 344.347C196.825 344.347 144.799 353.078 141.054 345.948C140.677 345.231 140.429 344.375 140.3 343.409C141.634 343.915 142.996 344.246 144.32 344.292C151.128 344.531 185.463 340.29 185.463 340.29L184.598 326.729L184.57 326.288C187.864 326.453 191.489 326.702 195.472 327.079C195.555 327.088 195.638 327.097 195.721 327.107L196.825 344.347Z" fill="#3E54FB"/>
</g>
<path d="M196.825 344.347C196.825 344.347 144.799 353.078 141.054 345.948C140.677 345.231 140.429 344.375 140.3 343.409C139.076 334.807 146.537 317.842 146.537 317.842C152.324 317.29 158.396 318.79 163.254 320.565C163.263 320.575 163.263 320.575 163.263 320.565C168.912 322.645 172.923 325.119 172.96 325.23L172.573 326.076L172.445 326.343L184.598 326.729L195.472 327.079L195.721 327.088V327.107L196.825 344.347Z" stroke="#263238" stroke-miterlimit="10" stroke-linecap="round" stroke-linejoin="round"/>
<path d="M172.443 326.339C172.443 326.339 160.154 326.015 154.917 328.416" stroke="#263238" stroke-miterlimit="10" stroke-linecap="round" stroke-linejoin="round"/>
<path d="M283.034 322.853C283.034 322.853 278.216 300.577 287.557 289.793" stroke="#263238" stroke-miterlimit="10" stroke-linecap="round" stroke-linejoin="round"/>
<path d="M291.221 300.889C291.221 300.889 284.894 305.473 283.746 312.925" stroke="#263238" stroke-miterlimit="10" stroke-linecap="round" stroke-linejoin="round"/>
<path d="M172.443 287.195C172.443 287.195 180.97 303.841 176.045 324.081" stroke="#263238" stroke-miterlimit="10" stroke-linecap="round" stroke-linejoin="round"/>
<path d="M166.256 294.909C166.256 294.909 172.997 299.014 176.045 305.414" stroke="#263238" stroke-miterlimit="10" stroke-linecap="round" stroke-linejoin="round"/>
<path d="M250.57 267.041C250.57 267.041 240.6 292.493 210.92 278.693" stroke="#263238" stroke-miterlimit="10" stroke-linecap="round" stroke-linejoin="round"/>
<path d="M296.811 284.299C296.811 284.299 290.381 288.046 287.483 296.326" stroke="#263238" stroke-miterlimit="10" stroke-linecap="round" stroke-linejoin="round"/>
<path d="M163.189 284.299C163.189 284.299 168.268 286.973 171.15 293.413" stroke="#263238" stroke-miterlimit="10" stroke-linecap="round" stroke-linejoin="round"/>
<path d="M207 266.208C207 266.208 210.306 279.767 229.276 280.074" stroke="#263238" stroke-miterlimit="10" stroke-linecap="round" stroke-linejoin="round"/>
<path d="M268.794 280.073C268.794 280.073 233.526 314.523 208.533 315.775" stroke="#263238" stroke-miterlimit="10" stroke-linecap="round" stroke-linejoin="round"/>
<path d="M188.753 285.9C188.753 285.9 193.637 296.865 202.542 300.889" stroke="#263238" stroke-miterlimit="10" stroke-linecap="round" stroke-linejoin="round"/>
<path d="M263.445 344.347C263.445 344.347 315.471 353.078 319.215 345.948C319.592 345.231 319.841 344.375 319.969 343.409C321.193 334.807 313.732 317.842 313.732 317.842C307.945 317.29 301.873 318.79 297.015 320.565C297.006 320.575 297.006 320.575 297.006 320.565C291.357 322.645 287.346 325.119 287.309 325.23L287.696 326.076L287.825 326.343L275.671 326.729L264.797 327.079L264.549 327.088V327.107L263.445 344.347Z" fill="white"/>
<mask id="mask16_1585_20438" style="mask-type:luminance" maskUnits="userSpaceOnUse" x="263" y="317" width="58" height="32">
<path d="M263.445 344.347C263.445 344.347 315.471 353.078 319.215 345.948C319.592 345.231 319.841 344.375 319.969 343.409C321.193 334.807 313.732 317.842 313.732 317.842C307.945 317.29 301.873 318.79 297.015 320.565C297.006 320.575 297.006 320.575 297.006 320.565C291.357 322.645 287.346 325.119 287.309 325.23L287.696 326.076L287.825 326.343L275.671 326.729L264.797 327.079L264.549 327.088V327.107L263.445 344.347Z" fill="white"/>
</mask>
<g mask="url(#mask16_1585_20438)">
<path opacity="0.2" d="M287.696 326.076C299.601 326.306 304.118 327.944 304.118 327.944C304.118 327.944 301.109 323.206 297.015 320.565C297.006 320.575 297.006 320.575 297.006 320.565C291.357 322.645 287.346 325.119 287.309 325.23L287.696 326.076Z" fill="#3E54FB"/>
<path opacity="0.2" d="M263.445 344.347C263.445 344.347 315.471 353.078 319.215 345.948C319.592 345.231 319.841 344.375 319.969 343.409C318.635 343.915 317.274 344.246 315.949 344.292C309.141 344.531 274.807 340.29 274.807 340.29L275.671 326.729L275.699 326.288C272.405 326.453 268.781 326.702 264.797 327.079C264.714 327.088 264.631 327.097 264.549 327.107L263.445 344.347Z" fill="#3E54FB"/>
</g>
<path d="M263.445 344.347C263.445 344.347 315.471 353.078 319.215 345.948C319.592 345.231 319.841 344.375 319.969 343.409C321.193 334.807 313.732 317.842 313.732 317.842C307.945 317.29 301.873 318.79 297.015 320.565C297.006 320.575 297.006 320.575 297.006 320.565C291.357 322.645 287.346 325.119 287.309 325.23L287.696 326.076L287.825 326.343L275.671 326.729L264.797 327.079L264.549 327.088V327.107L263.445 344.347Z" stroke="#263238" stroke-miterlimit="10" stroke-linecap="round" stroke-linejoin="round"/>
<path d="M287.826 326.339C287.826 326.339 300.115 326.015 305.352 328.416" stroke="#263238" stroke-miterlimit="10" stroke-linecap="round" stroke-linejoin="round"/>
<path d="M247.631 267.092C247.631 267.092 242.012 277.233 228.934 276.593C218.23 276.056 210.92 267.941 210.92 267.941C214.766 264.824 215.337 257.281 215.068 252.326C215.059 252.214 215.059 252.11 215.051 251.998C215.033 251.677 215.008 251.358 214.982 251.046C214.688 247.469 214.003 244.776 214.003 244.776L246.028 246.378C244.652 250.205 244.046 253.41 243.924 256.051C243.846 257.706 243.959 259.143 244.175 260.382C244.184 260.434 244.193 260.478 244.2 260.52C245.085 265.282 247.631 267.092 247.631 267.092Z" fill="white" stroke="#263238" stroke-miterlimit="10"/>
<path d="M176.046 340.024V343.446C176.046 344.522 176.918 345.393 177.993 345.393H281.088C282.163 345.393 283.035 344.522 283.035 343.446V340.024H176.046Z" fill="#363849" stroke="#263238" stroke-miterlimit="10" stroke-linecap="round" stroke-linejoin="round"/>
<path d="M295.695 289.674L282.41 339.278C282.134 340.284 281.302 341.158 280.332 341.54C279.985 341.678 279.63 341.756 279.267 341.756H179.813C179.45 341.756 179.094 341.678 178.748 341.54C177.778 341.158 176.946 340.284 176.669 339.278L163.385 289.674C163.012 288.306 163.826 287.196 165.195 287.196H293.885C295.254 287.195 296.069 288.305 295.695 289.674Z" fill="#BFBFBF" stroke="#263238" stroke-miterlimit="10"/>
<path d="M293.53 292.271L280.332 341.54C279.985 341.678 279.63 341.756 279.267 341.756H179.813C179.45 341.756 179.094 341.678 178.748 341.54L165.549 292.271C165.178 290.903 165.991 289.794 167.36 289.794H291.72C293.089 289.794 293.903 290.903 293.53 292.271Z" fill="#999999" stroke="#263238" stroke-miterlimit="10" stroke-linecap="round" stroke-linejoin="round"/>
<path d="M236.274 319.996C233.332 319.996 230.947 318.232 230.947 316.058C230.947 315.557 231.079 315.079 231.31 314.638C230.741 314.536 230.15 314.475 229.539 314.475C225.414 314.475 222.07 316.948 222.07 319.996C222.07 323.046 225.414 325.517 229.539 325.517C233.664 325.517 237.009 323.046 237.009 319.996C237.009 319.981 237.006 319.969 237.006 319.955C236.767 319.979 236.525 319.996 236.274 319.996Z" fill="#BFBFBF" stroke="#263238" stroke-miterlimit="10"/>
<path d="M246.029 246.377C244.653 250.204 244.046 253.409 243.925 256.05C240.452 259.532 236.191 262.122 231.489 261.386C224.691 260.311 219.035 255.289 214.983 251.046C214.688 247.469 214.004 244.776 214.004 244.776L246.029 246.377Z" fill="#263238"/>
<path d="M252.554 223.061C252.554 223.061 255.135 220.256 256.404 221.179C257.674 222.102 259.174 224.716 258.481 227.099C257.79 229.484 254.789 233.636 254.558 236.058C254.328 238.479 252.773 241.223 251.071 239.621C249.369 238.019 252.554 223.061 252.554 223.061Z" fill="white" stroke="#263238" stroke-miterlimit="10"/>
<path d="M206.527 223.061C206.527 223.061 203.944 220.256 202.674 221.179C201.405 222.102 199.907 224.716 200.598 227.099C201.29 229.484 204.289 233.636 204.52 236.058C204.751 238.479 206.304 241.223 208.008 239.621C209.71 238.019 206.527 223.061 206.527 223.061Z" fill="white" stroke="#263238" stroke-miterlimit="10"/>
<path d="M228.995 190.627C261.474 190.627 253.752 233.884 247.776 247.77C245.679 252.648 234.801 259.049 229.54 259.049C224.648 259.049 213.457 251.399 211.471 246.819C205.426 232.862 198.036 190.627 228.995 190.627Z" fill="white" stroke="#263238" stroke-miterlimit="10"/>
<path d="M234.5 225.129C234.5 225.129 242.782 223.61 245.571 226.877" stroke="#263238" stroke-miterlimit="10" stroke-linecap="round" stroke-linejoin="round"/>
<path d="M240.761 231.375C240.761 232.374 240.255 233.181 239.63 233.181C239.004 233.181 238.498 232.374 238.498 231.375C238.498 230.376 239.005 229.568 239.63 229.568C240.255 229.569 240.761 230.376 240.761 231.375Z" fill="#263238"/>
<path d="M224.58 225.13C224.58 225.13 216.946 224.457 213.507 226.877" stroke="#263238" stroke-miterlimit="10" stroke-linecap="round" stroke-linejoin="round"/>
<path d="M218.319 231.375C218.319 232.374 218.826 233.181 219.45 233.181C220.074 233.181 220.581 232.374 220.581 231.375C220.581 230.376 220.074 229.568 219.45 229.568C218.826 229.569 218.319 230.376 218.319 231.375Z" fill="#263238"/>
<path d="M242.438 201.687C242.438 201.687 230.789 206.07 217.411 201.687C217.411 201.687 213.027 201.431 211.297 203.634C209.568 205.84 211.297 212.644 211.758 215.412C212.22 218.18 207.952 220.102 208.528 227.099L206.878 229.514C206.878 229.514 202.296 218.255 203.45 208.566C204.602 198.879 210.72 195.112 210.72 195.112C210.72 195.112 213.507 186.746 229.851 186.809C247.466 186.877 249.245 196.411 249.245 196.411C249.245 196.411 261.186 204.374 252.352 230.326L250.435 227.099C250.435 227.099 251.366 221.871 248.205 217.258C246.667 215.012 249.127 208.261 248.55 204.8C247.973 201.341 242.438 201.687 242.438 201.687Z" fill="#263238"/>
<path d="M231.472 229.568C231.472 229.568 231.961 236.957 233.392 239.766C234.822 242.573 229.816 243.048 227.672 241.381" stroke="#263238" stroke-miterlimit="10" stroke-linecap="round" stroke-linejoin="round"/>
<path d="M223.296 247.305C223.296 248.433 227.013 249.848 230.658 249.848C234.329 249.848 237.045 248.315 236.503 247.753" stroke="#263238" stroke-miterlimit="10" stroke-linecap="round" stroke-linejoin="round"/>
<path d="M252.165 206.421C252.165 206.421 247.4 212.902 236.576 217.376V214.289C236.576 214.289 226.795 219.933 217.984 219.071L219.978 215.061C219.978 215.061 212.552 222.93 206.265 222.62C199.979 222.313 198.155 186.809 229.851 186.809C255.609 186.809 252.165 206.421 252.165 206.421Z" fill="#263238"/>
<path d="M246.824 208.568C246.824 208.568 245.132 217.96 253.989 224.837C253.989 224.837 259.237 219.194 257.216 208.568C255.195 197.94 250.569 197.61 250.569 197.61L246.824 208.568Z" fill="#263238"/>
<path opacity="0.2" d="M242.88 193.9C242.88 193.9 239.579 207.93 227.429 215.06" stroke="white" stroke-miterlimit="10"/>
<path opacity="0.2" d="M235.156 193.9C235.156 193.9 229.77 207.7 209.76 210" stroke="white" stroke-miterlimit="10"/>
<path opacity="0.2" d="M247.631 199.061C247.631 199.061 247.71 206.32 242.88 210" stroke="white" stroke-miterlimit="10"/>
<path d="M363.771 90.6391L372.906 72.9199" stroke="#263238" stroke-miterlimit="10" stroke-linecap="round" stroke-linejoin="round"/>
<path d="M372.906 100.249L393.453 87.9167" stroke="#263238" stroke-miterlimit="10" stroke-linecap="round" stroke-linejoin="round"/>
<path d="M381.401 115.044L399.241 113.914" stroke="#263238" stroke-miterlimit="10" stroke-linecap="round" stroke-linejoin="round"/>
<path d="M88.7799 359.654H74.5485V347.428C74.5485 346.303 75.4593 345.393 76.5835 345.393H382.496C383.621 345.393 384.531 346.303 384.531 347.428V359.654" fill="white"/>
<path d="M88.7799 359.654H74.5485V347.428C74.5485 346.303 75.4593 345.393 76.5835 345.393H382.496C383.621 345.393 384.531 346.303 384.531 347.428V359.654" stroke="#263238" stroke-miterlimit="10"/>
<path d="M368 359.654H240.761" stroke="#263238" stroke-miterlimit="10"/>
<path d="M231.65 359.654H222.507" stroke="#263238" stroke-miterlimit="10"/>
<path d="M163.293 359.654H96.1399" stroke="#263238" stroke-miterlimit="10"/>
</svg>
