<svg width="360" height="312" viewBox="0 0 360 312" fill="none" xmlns="http://www.w3.org/2000/svg">
<path d="M346.708 157.149C332.141 194.757 298.099 223.287 262.723 236.863C235.264 247.401 206.049 246.36 176.929 237.31C149.299 228.723 123.896 214.796 95.55 221.074C73.286 226.006 48.1839 233.066 28.0639 212.748C18.0189 202.604 11.3519 188.848 6.95089 174.766C-7.02412 130.059 -0.00711064 82.7581 29.9159 53.4121C55.5519 28.2711 92.198 16.1531 127.553 18.3001C134.277 18.7081 141.021 19.6611 147.695 21.2851C165.16 25.5341 184.221 32.1871 202.146 29.7751C223.264 26.9331 237.92 10.8751 257.159 3.51011C277.03 -4.09789 297.637 4.89211 313.471 22.0221C346.612 57.8761 364.259 111.833 346.708 157.149Z" fill="#3E54FB"/>
<path opacity="0.7" d="M346.708 157.149C332.141 194.757 298.099 223.287 262.723 236.863C235.264 247.401 206.049 246.36 176.929 237.31C149.299 228.723 123.896 214.796 95.55 221.074C73.286 226.006 48.1839 233.066 28.0639 212.748C18.0189 202.604 11.3519 188.848 6.95089 174.766C-7.02412 130.059 -0.00711064 82.7581 29.9159 53.4121C55.5519 28.2711 92.198 16.1531 127.553 18.3001C134.277 18.7081 141.021 19.6611 147.695 21.2851C165.16 25.5341 184.221 32.1871 202.146 29.7751C223.264 26.9331 237.92 10.8751 257.159 3.51011C277.03 -4.09789 297.637 4.89211 313.471 22.0221C346.612 57.8761 364.259 111.833 346.708 157.149Z" fill="white"/>
<path d="M223.973 42.533H139.325L140.181 34.667H224.83L223.973 42.533Z" fill="white"/>
<path d="M223.973 53.5469H139.325L140.181 45.6799H224.83L223.973 53.5469Z" fill="white"/>
<path d="M223.973 64.5599H139.325L140.181 56.6929H224.83L223.973 64.5599Z" fill="white"/>
<path d="M223.973 75.573H139.325L140.181 67.707H224.83L223.973 75.573Z" fill="white"/>
<path d="M223.973 86.587H139.325L140.181 78.72H224.83L223.973 86.587Z" fill="white"/>
<path d="M223.973 97.5999H139.325L140.181 89.7329H224.83L223.973 97.5999Z" fill="white"/>
<path d="M223.973 108.613H139.325L140.181 100.747H224.83L223.973 108.613Z" fill="white"/>
<path d="M223.973 119.627H139.325L140.181 111.76H224.83L223.973 119.627Z" fill="white"/>
<path d="M223.973 130.64H139.325L140.181 122.773H224.83L223.973 130.64Z" fill="white"/>
<path d="M223.973 141.653H139.325L140.181 133.787H224.83L223.973 141.653Z" fill="white"/>
<path d="M223.973 152.667H139.325L140.181 144.8H224.83L223.973 152.667Z" fill="white"/>
<path d="M313.477 42.533H228.828L229.685 34.667H314.333L313.477 42.533Z" fill="white"/>
<path d="M313.477 53.5469H228.828L229.685 45.6799H314.333L313.477 53.5469Z" fill="white"/>
<path d="M313.477 64.5599H228.828L229.685 56.6929H314.333L313.477 64.5599Z" fill="white"/>
<path d="M313.477 75.573H228.828L229.685 67.707H314.333L313.477 75.573Z" fill="white"/>
<path d="M313.477 86.587H228.828L229.685 78.72H314.333L313.477 86.587Z" fill="white"/>
<path d="M313.477 97.5999H228.828L229.685 89.7329H314.333L313.477 97.5999Z" fill="white"/>
<path d="M313.477 108.613H228.828L229.685 100.747H314.333L313.477 108.613Z" fill="white"/>
<path d="M313.477 119.627H228.828L229.685 111.76H314.333L313.477 119.627Z" fill="white"/>
<path d="M313.477 130.64H228.828L229.685 122.773H314.333L313.477 130.64Z" fill="white"/>
<path d="M313.477 141.653H228.828L229.685 133.787H314.333L313.477 141.653Z" fill="white"/>
<path d="M313.477 152.667H228.828L229.685 144.8H314.333L313.477 152.667Z" fill="white"/>
<path d="M74.877 58.7578H41.0381C38.2061 58.7578 35.9111 61.0538 35.9111 63.8848C35.9111 66.7168 38.2071 69.0118 41.0381 69.0118H74.877V58.7578Z" fill="white"/>
<path d="M74.877 45.9399H41.0381C38.2061 45.9399 35.9111 48.2359 35.9111 51.0669C35.9111 53.8989 38.2071 56.1939 41.0381 56.1939H74.877V45.9399Z" fill="white"/>
<path d="M90.258 34.1479H77.9531V68.4999H90.258V34.1479Z" fill="white"/>
<path d="M105.64 34.1479H93.335V68.4999H105.64V34.1479Z" fill="white"/>
<path d="M121.021 34.1479H108.716V68.4999H121.021V34.1479Z" fill="white"/>
<path opacity="0.15" d="M128.45 69.4167H31.8281V75.1417H39.6671V89.3327H44.3331V75.1417H113.667V89.3327H118.333V75.1417H128.45V69.4167Z" fill="#212336"/>
<path d="M322.5 168.348C322.5 168.348 319 172.348 317 180.348C315 188.348 324 194.348 321 202.848C318 211.348 312.5 215.348 314 223.848C315.5 232.348 322 232.848 317 242.348C312 251.848 307.5 255.348 309 264.348C310.5 273.348 329.5 284.848 329.5 284.848C329.5 284.848 342.5 270.348 343 260.848C343.5 251.348 331.5 245.348 333.5 236.848C335.5 228.348 340.5 221.348 340 213.348C339.5 205.348 330 199.348 330 193.348C330 187.348 334 183.848 334 176.848C334 169.848 325 163.848 325 159.848C325 155.848 327 150.848 327 150.848C327 150.848 317.5 156.848 322.5 168.348Z" fill="#3E54FB"/>
<path opacity="0.5" d="M322.5 168.348C322.5 168.348 319 172.348 317 180.348C315 188.348 324 194.348 321 202.848C318 211.348 312.5 215.348 314 223.848C315.5 232.348 322 232.848 317 242.348C312 251.848 307.5 255.348 309 264.348C310.5 273.348 329.5 284.848 329.5 284.848C329.5 284.848 342.5 270.348 343 260.848C343.5 251.348 331.5 245.348 333.5 236.848C335.5 228.348 340.5 221.348 340 213.348C339.5 205.348 330 199.348 330 193.348C330 187.348 334 183.848 334 176.848C334 169.848 325 163.848 325 159.848C325 155.848 327 150.848 327 150.848C327 150.848 317.5 156.848 322.5 168.348Z" fill="white"/>
<path d="M327.5 281.848L326.5 173.848" stroke="#212336" stroke-miterlimit="10" stroke-linecap="round" stroke-linejoin="round"/>
<path d="M337.586 257.126L327.789 266.924L316.685 257.126" stroke="#212336" stroke-miterlimit="10" stroke-linecap="round" stroke-linejoin="round"/>
<path d="M334.321 214.017L327.136 225.121L320.931 214.997" stroke="#212336" stroke-miterlimit="10" stroke-linecap="round" stroke-linejoin="round"/>
<path d="M322.564 181.359L326.809 186.584L330.402 180.379" stroke="#212336" stroke-miterlimit="10" stroke-linecap="round" stroke-linejoin="round"/>
<path d="M340 281.848H315V309.848H340V281.848Z" fill="#212336"/>
<path d="M218.472 196.405L227.886 308.419C227.989 309.129 228.671 309.604 229.357 309.443C229.939 309.306 230.327 308.754 230.266 308.149L223.857 196.405H218.472Z" fill="#212336" stroke="#212336" stroke-miterlimit="10" stroke-linecap="round" stroke-linejoin="round"/>
<path d="M281.701 196.405L291.146 308.793C291.249 309.503 291.931 309.978 292.617 309.817C293.199 309.68 293.588 309.128 293.526 308.523L287.096 196.406H281.701V196.405Z" fill="#212336" stroke="#212336" stroke-miterlimit="10" stroke-linecap="round" stroke-linejoin="round"/>
<path d="M117.443 196.405L112.476 307.438C112.423 308.042 112.818 308.6 113.402 308.744C114.091 308.914 114.767 308.448 114.861 307.739L122.818 196.404H117.443V196.405Z" fill="#212336" stroke="#212336" stroke-miterlimit="10" stroke-linecap="round" stroke-linejoin="round"/>
<path d="M59.1659 196.405L54.2149 307.065C54.1619 307.669 54.5569 308.227 55.1409 308.371C55.8299 308.541 56.5059 308.075 56.5999 307.366L64.5309 196.405H59.1659Z" fill="#212336" stroke="#212336" stroke-miterlimit="10" stroke-linecap="round" stroke-linejoin="round"/>
<path d="M294 190.201H55.6519V199.819H294V190.201Z" fill="white" stroke="#212336" stroke-miterlimit="10" stroke-linecap="round" stroke-linejoin="round"/>
<path d="M294 190.201H55.6519V193.5H294V190.201Z" fill="#212336" stroke="#212336" stroke-miterlimit="10" stroke-linecap="round" stroke-linejoin="round"/>
<path d="M294 190.201H210.174V199.819H294V190.201Z" fill="#212336" stroke="#212336" stroke-miterlimit="10" stroke-linecap="round" stroke-linejoin="round"/>
<path d="M296.986 187H52.6669V190.667H296.986V187Z" fill="white" stroke="#212336" stroke-miterlimit="10" stroke-linecap="round" stroke-linejoin="round"/>
<path d="M296.986 187H213.667V190.667H296.986V187Z" fill="#212336" stroke="#212336" stroke-miterlimit="10" stroke-linecap="round" stroke-linejoin="round"/>
<path d="M188.491 174.223L195.759 186.74H183.232L188.491 174.223Z" fill="#212336" stroke="#212336" stroke-miterlimit="10" stroke-linecap="round" stroke-linejoin="round"/>
<path d="M111.602 186.667H183.231C183.783 186.667 184.283 186.34 184.505 185.835L204.338 140.617C204.741 139.698 204.068 138.668 203.064 138.668H131.435C130.883 138.668 130.383 138.994 130.161 139.5L110.328 184.718C109.926 185.636 110.599 186.667 111.602 186.667Z" fill="#212336" stroke="#212336" stroke-miterlimit="10" stroke-linecap="round" stroke-linejoin="round"/>
<path d="M116.765 184.873H178.751C179.267 184.873 179.733 184.568 179.94 184.096L198.096 143.67C198.472 142.812 197.844 141.85 196.907 141.85H134.92C134.404 141.85 133.938 142.155 133.731 142.627L115.575 183.053C115.199 183.91 115.828 184.873 116.765 184.873Z" fill="white"/>
<mask id="mask0_1578_16689" style="mask-type:luminance" maskUnits="userSpaceOnUse" x="115" y="141" width="84" height="44">
<path d="M116.765 184.873H178.751C179.267 184.873 179.733 184.568 179.94 184.096L198.096 143.67C198.472 142.812 197.844 141.85 196.907 141.85H134.92C134.404 141.85 133.938 142.155 133.731 142.627L115.575 183.053C115.199 183.91 115.828 184.873 116.765 184.873Z" fill="white"/>
</mask>
<g mask="url(#mask0_1578_16689)">
<path d="M187.079 168.2C177.631 166.566 174.354 157.994 165.38 146.027C164.115 144.34 162.623 142.97 160.995 141.849H134.92C134.404 141.849 133.938 142.154 133.731 142.626L126.978 157.663C145.747 165.499 148.611 154.782 166.753 162.039C174.744 165.235 180.553 169.74 184.564 173.801L187.079 168.2Z" fill="#3E54FB" stroke="#212336" stroke-miterlimit="10" stroke-linecap="round" stroke-linejoin="round"/>
<path d="M164.923 169.818C150.282 168.445 121.459 179.883 121.459 179.883L118.786 184.872H132.482C142.799 180.869 155.142 176.896 162.635 177.138C170.519 177.392 172.18 181.463 172.417 184.872H174.64C175.761 179.349 175.034 170.766 164.923 169.818Z" fill="#3E54FB" stroke="#212336" stroke-miterlimit="10" stroke-linecap="round" stroke-linejoin="round"/>
<path d="M199.237 154.262C199.237 151.799 195.799 146.062 193.036 141.849H184.759C189.142 146.69 199.237 157.486 199.237 154.262Z" fill="#3E54FB" stroke="#212336" stroke-miterlimit="10" stroke-linecap="round" stroke-linejoin="round"/>
</g>
<path d="M116.765 184.873H178.751C179.267 184.873 179.733 184.568 179.94 184.096L198.096 143.67C198.472 142.812 197.844 141.85 196.907 141.85H134.92C134.404 141.85 133.938 142.155 133.731 142.627L115.575 183.053C115.199 183.91 115.828 184.873 116.765 184.873Z" stroke="#212336" stroke-miterlimit="10" stroke-linecap="round" stroke-linejoin="round"/>
<path d="M268.734 187.289H288.694V182.171H268.734V187.289Z" fill="#212336"/>
<path d="M279.228 183.915C280.271 183.915 281.149 183.107 281.221 182.052L284.548 133.432C284.624 132.33 283.791 131.375 282.69 131.3C281.592 131.216 280.633 132.056 280.558 133.158L277.231 181.778C277.155 182.881 277.988 183.835 279.089 183.91C279.135 183.913 279.182 183.915 279.228 183.915Z" fill="#212336"/>
<path d="M282.807 135.807C283.418 135.807 284.02 135.529 284.413 135.001C285.073 134.115 284.889 132.862 284.002 132.203L251.201 109.122C250.766 108.799 250.152 108.889 249.83 109.323C249.507 109.757 249.597 110.371 250.031 110.694L281.614 135.412C281.973 135.679 282.392 135.807 282.807 135.807Z" fill="#212336"/>
<path d="M282.808 136.622C284.504 136.622 285.879 135.247 285.879 133.551C285.879 131.855 284.504 130.48 282.808 130.48C281.112 130.48 279.737 131.855 279.737 133.551C279.737 135.247 281.112 136.622 282.808 136.622Z" fill="#212336"/>
<path d="M250.054 114.104C251.75 114.104 253.125 112.729 253.125 111.033C253.125 109.337 251.75 107.962 250.054 107.962C248.358 107.962 246.983 109.337 246.983 111.033C246.983 112.729 248.358 114.104 250.054 114.104Z" fill="#212336"/>
<path d="M237.029 115.243L248.606 124.53L252.487 114.503C253.176 112.723 252.632 110.702 251.143 109.507C249.654 108.313 247.563 108.221 245.975 109.279L237.029 115.243Z" fill="#212336"/>
<path d="M228.35 186.667H274.113C274.466 186.667 274.785 186.458 274.927 186.135L287.598 157.245C287.856 156.658 287.425 156 286.784 156H241.02C240.667 156 240.348 156.209 240.206 156.532L227.535 185.421C227.278 186.008 227.708 186.667 228.35 186.667Z" fill="white" stroke="#212336" stroke-miterlimit="10" stroke-linecap="round" stroke-linejoin="round"/>
<path d="M232.637 184.417H271.685C271.986 184.417 272.258 184.239 272.379 183.963L283.19 159.313C283.41 158.812 283.043 158.25 282.496 158.25H243.448C243.147 158.25 242.875 158.428 242.754 158.704L231.943 183.354C231.723 183.855 232.09 184.417 232.637 184.417Z" fill="white"/>
<mask id="mask1_1578_16689" style="mask-type:luminance" maskUnits="userSpaceOnUse" x="231" y="158" width="53" height="27">
<path d="M232.637 184.417H271.685C271.986 184.417 272.258 184.239 272.379 183.963L283.19 159.313C283.41 158.812 283.043 158.25 282.496 158.25H243.448C243.147 158.25 242.875 158.428 242.754 158.704L231.943 183.354C231.723 183.855 232.09 184.417 232.637 184.417Z" fill="white"/>
</mask>
<g mask="url(#mask1_1578_16689)">
<path d="M262.152 160.126C261.309 159.051 260.316 158.178 259.232 157.465H241.869C241.526 157.465 241.215 157.659 241.077 157.96L236.58 167.539C249.078 172.531 250.986 165.704 263.067 170.327C268.388 172.363 272.257 175.233 274.927 177.82L276.603 174.251C270.31 173.211 268.128 167.749 262.152 160.126Z" fill="#3E54FB" stroke="#212336" stroke-miterlimit="10" stroke-linecap="round" stroke-linejoin="round"/>
<path d="M261.847 175.282C252.098 174.408 232.904 181.694 232.904 181.694L231.124 184.872H240.244C247.114 182.322 255.334 179.791 260.323 179.945C265.573 180.107 266.679 182.7 266.837 184.872H268.317C269.064 181.354 268.58 175.886 261.847 175.282Z" fill="#3E54FB" stroke="#212336" stroke-miterlimit="10" stroke-linecap="round" stroke-linejoin="round"/>
<path d="M280.568 157.465H275.056C277.975 160.548 284.697 167.426 284.697 165.373C284.697 163.803 282.408 160.149 280.568 157.465Z" fill="#3E54FB" stroke="#212336" stroke-miterlimit="10" stroke-linecap="round" stroke-linejoin="round"/>
</g>
<path d="M232.637 184.417H271.685C271.986 184.417 272.258 184.239 272.379 183.963L283.19 159.313C283.41 158.812 283.043 158.25 282.496 158.25H243.448C243.147 158.25 242.875 158.428 242.754 158.704L231.943 183.354C231.723 183.855 232.09 184.417 232.637 184.417Z" stroke="#212336" stroke-miterlimit="10" stroke-linecap="round" stroke-linejoin="round"/>
<path d="M274.75 184.75H206V187H274.75V184.75Z" fill="white" stroke="#212336" stroke-miterlimit="10" stroke-linecap="round" stroke-linejoin="round"/>
<path d="M274.75 184.75H241.422V187H274.75V184.75Z" fill="white" stroke="#212336" stroke-miterlimit="10" stroke-linecap="round" stroke-linejoin="round"/>
<path d="M212.407 169.127H200.281V187.044H212.407V169.127Z" fill="white" stroke="#212336" stroke-miterlimit="10" stroke-linecap="round" stroke-linejoin="round"/>
<path d="M211.865 184.605H210.598C210.045 184.605 209.598 184.158 209.598 183.605C209.598 183.052 210.045 182.605 210.598 182.605H211.865C212.91 182.605 213.761 181.754 213.761 180.709V176.365C213.761 175.32 212.91 174.469 211.865 174.469H210.236C209.683 174.469 209.236 174.021 209.236 173.469C209.236 172.917 209.683 172.469 210.236 172.469H211.865C214.013 172.469 215.761 174.217 215.761 176.365V180.709C215.76 182.858 214.013 184.605 211.865 184.605Z" fill="white" stroke="#212336" stroke-miterlimit="10" stroke-linecap="round" stroke-linejoin="round"/>
<path d="M129.726 93.2858C129.726 93.2858 132.473 101.803 132.473 103.452C132.473 105.101 132.198 107.024 132.198 107.024L134.628 110.78C134.951 111.279 134.793 111.946 134.281 112.247L130.549 114.442C130.549 114.442 130 123.234 129.45 124.333C128.901 125.432 119.559 125.157 119.559 125.157L116.537 130.927L100.876 124.882L104.997 113.617L104.173 96.5818C104.173 96.5818 113.79 88.0658 129.726 93.2858Z" fill="white" stroke="#212336" stroke-miterlimit="10" stroke-linecap="round" stroke-linejoin="round"/>
<path d="M118.735 114.443L120.933 114.992C120.933 114.992 120.384 118.289 122.581 120.762" fill="white"/>
<path d="M118.735 114.443L120.933 114.992C120.933 114.992 120.384 118.289 122.581 120.762" stroke="#212336" stroke-miterlimit="10" stroke-linecap="round" stroke-linejoin="round"/>
<path d="M121.271 108.558L136.743 104.728" stroke="#212336" stroke-miterlimit="10" stroke-linecap="round" stroke-linejoin="round"/>
<path d="M132.76 104.422L136.283 104.575C136.283 104.575 137.508 108.558 133.832 109.017" stroke="#212336" stroke-miterlimit="10" stroke-linecap="round" stroke-linejoin="round"/>
<path d="M111.592 86.9669C111.592 86.9669 105.547 85.0439 102.525 93.2859C99.5029 101.528 104.998 112.244 104.998 113.618C104.998 114.992 109.669 116.091 113.241 116.091C116.813 116.091 118.736 114.443 118.736 114.443C118.736 114.443 117.362 108.948 118.461 107.849C119.56 106.75 122.308 109.223 122.308 109.223C122.308 109.223 123.956 108.948 124.781 108.399C125.605 107.85 129.727 105.652 128.353 103.179C126.979 100.706 124.232 98.508 126.43 96.86C128.628 95.2119 134.398 94.937 134.673 89.7159C134.948 84.4959 131.651 83.3969 128.354 83.9459C125.057 84.4949 126.156 79.2749 119.837 80.0989C113.515 80.9219 110.493 84.4939 111.592 86.9669Z" fill="#212336" stroke="#212336" stroke-miterlimit="10" stroke-linecap="round" stroke-linejoin="round"/>
<path d="M112.549 105.676C111.797 107.157 111.569 108.294 111.569 108.294" stroke="white" stroke-width="0.5" stroke-miterlimit="10" stroke-linecap="round" stroke-linejoin="round"/>
<path d="M126.63 95.8628C126.63 95.8628 124.717 97.5358 118.741 99.9268C116.257 100.921 114.598 102.534 113.509 104.08" stroke="white" stroke-width="0.5" stroke-miterlimit="10" stroke-linecap="round" stroke-linejoin="round"/>
<path d="M126.152 100.405C126.152 100.405 119.219 104.947 116.112 105.903" stroke="white" stroke-width="0.5" stroke-miterlimit="10" stroke-linecap="round" stroke-linejoin="round"/>
<path d="M175.99 143.73C177.635 146.412 181.999 152.38 186.545 156.445C186.545 156.445 182.714 147.915 177.031 142.872C176.533 142.43 175.643 143.164 175.99 143.73Z" fill="#212336" stroke="#212336" stroke-miterlimit="10" stroke-linecap="round" stroke-linejoin="round"/>
<path d="M153.917 176.75L174.167 161.5C174.167 161.5 174.167 154.5 175.167 153C176.167 151.5 184.417 149 184.417 149C184.417 149 186.667 146.25 187.917 149C189.167 151.75 187.417 154 187.417 154C187.417 154 187.667 158.5 187.417 160C187.167 161.5 178.417 165.25 178.417 165.25C178.417 165.25 166.417 183 160.417 188C154.417 193 153.167 194 150.667 195C148.167 196 143.667 188.75 143.667 188.75L153.917 176.75Z" fill="white" stroke="#212336" stroke-miterlimit="10" stroke-linecap="round" stroke-linejoin="round"/>
<path d="M117.167 293.767C117.167 293.767 131.417 302.767 133.917 302.767C136.417 302.767 137.667 305.017 136.417 305.267C135.167 305.517 127.417 305.767 122.167 306.017C116.917 306.267 113.417 305.767 110.417 305.767C107.417 305.767 103.917 306.017 102.417 305.267C100.917 304.517 103.417 296.017 103.417 294.517C103.417 293.017 115.417 292.767 117.167 293.767Z" fill="#212336" stroke="#212336" stroke-miterlimit="10" stroke-linecap="round" stroke-linejoin="round"/>
<path d="M135.554 303.132C130.018 304.957 121.051 303.757 115.667 303.268C111.409 302.881 104.771 302.794 101.982 302.774C101.872 304.057 101.951 305.036 102.417 305.268C103.917 306.018 107.417 305.768 110.417 305.768C113.417 305.768 116.917 306.268 122.167 306.018C127.417 305.768 135.167 305.518 136.417 305.268C137.35 305.081 136.888 303.779 135.554 303.132Z" fill="white" stroke="#212336" stroke-miterlimit="10" stroke-linecap="round" stroke-linejoin="round"/>
<path d="M128.417 232L117.179 288.347L119.521 294.202C119.521 294.202 117.167 297.999 112.417 298.999C107.667 299.999 102.667 299.999 102.667 299.999C102.667 299.999 101.417 293.749 102.167 292.999C102.917 292.249 103.167 289.249 103.167 289.249L109.667 232.499L128.417 232Z" fill="#3E54FB" stroke="#212336" stroke-miterlimit="10" stroke-linecap="round" stroke-linejoin="round"/>
<path d="M162.667 291.864C162.667 291.864 171.417 299.114 175.417 300.364C179.417 301.614 183.667 302.864 183.667 304.114C183.667 305.364 174.167 306.614 166.917 305.864C159.667 305.114 148.667 301.864 146.167 301.864C143.667 301.864 144.167 295.364 144.167 294.364C144.167 293.364 156.417 285.364 162.667 291.864Z" fill="#212336" stroke="#212336" stroke-miterlimit="10" stroke-linecap="round" stroke-linejoin="round"/>
<path d="M183.667 304.114C183.667 303.664 183.111 303.215 182.221 302.765C176.82 303.568 169.153 303.826 160.667 302.614C153.471 301.586 147.451 300.206 144.374 299.439C144.634 300.783 145.15 301.864 146.167 301.864C148.667 301.864 159.667 305.114 166.917 305.864C174.167 306.614 183.667 305.364 183.667 304.114Z" fill="white" stroke="#212336" stroke-miterlimit="10" stroke-linecap="round" stroke-linejoin="round"/>
<path d="M119.167 206.75C119.167 206.75 128.917 205.75 141.667 207.25C154.417 208.75 173.167 210.5 173.667 213.75C174.167 217 161.29 284.646 161.29 286.396C161.29 288.146 163.29 289.896 163.79 290.896C164.29 291.896 164.29 293.146 164.29 293.146C164.29 293.146 158.167 299.75 153.417 301.5C148.667 303.25 144.675 301.619 143.675 301.619C142.675 301.619 142.675 294.869 143.425 291.619C144.175 288.369 145.425 280.119 145.675 279.369C145.925 278.619 149.917 230.5 149.917 230.5C149.917 230.5 122.417 236.5 100.167 234C77.9169 231.5 75.6669 228 74.4169 222.75C73.1669 217.5 75.6669 207 75.6669 207L119.167 206.75Z" fill="#3E54FB" stroke="#212336" stroke-miterlimit="10" stroke-linecap="round" stroke-linejoin="round"/>
<path d="M116.353 222.944C115.79 223.741 115.223 224.443 114.666 225" stroke="#212336" stroke-miterlimit="10" stroke-linecap="round" stroke-linejoin="round"/>
<path d="M123.167 209.5C123.167 209.5 120.927 215.225 118.203 220.001" stroke="#212336" stroke-miterlimit="10" stroke-linecap="round" stroke-linejoin="round"/>
<path d="M120.167 212C120.167 212 116.167 219.5 107.167 223" stroke="#212336" stroke-miterlimit="10" stroke-linecap="round" stroke-linejoin="round"/>
<path d="M167.215 225.767C168.064 225.441 168.887 225.102 169.666 224.75L167.215 225.767Z" fill="white"/>
<path d="M167.215 225.767C168.064 225.441 168.887 225.102 169.666 224.75" stroke="#212336" stroke-miterlimit="10" stroke-linecap="round" stroke-linejoin="round"/>
<path d="M149.917 230.5C149.917 230.5 157.203 229.134 164.087 226.875L149.917 230.5Z" fill="white"/>
<path d="M149.917 230.5C149.917 230.5 157.203 229.134 164.087 226.875" stroke="#212336" stroke-miterlimit="10" stroke-linecap="round" stroke-linejoin="round"/>
<path d="M98.167 123.5C98.167 123.5 78.6669 132.75 75.9169 134.5C73.1669 136.25 71.4169 158 71.4169 161.75C71.4169 165.5 74.1669 202.25 74.9169 208.5C75.6669 214.75 99.667 219 107.667 216.75C115.667 214.5 123.417 208.75 123.417 206.75C123.417 204.75 122.667 187.75 123.167 184.5C123.667 181.25 128.167 167.5 128.167 167.5L136.667 191.75C136.667 191.75 142.095 190.349 147.167 188.25C154.417 185.25 156.167 175.25 156.167 175.25C156.167 175.25 148.167 161.25 145.917 154.25C143.667 147.25 142.667 142 141.667 140.75C140.667 139.5 118.167 129 114.167 126.25C110.167 123.5 105.167 121.5 98.167 123.5Z" fill="#212336" stroke="#212336" stroke-miterlimit="10" stroke-linecap="round" stroke-linejoin="round"/>
<path d="M128.167 167.5L121.667 158" stroke="white" stroke-width="0.75" stroke-miterlimit="10" stroke-linecap="round" stroke-linejoin="round"/>
<path d="M127.108 166.145L115.667 160.5" stroke="white" stroke-width="0.75" stroke-miterlimit="10" stroke-linecap="round" stroke-linejoin="round"/>
<path d="M93.1891 237.823L103.176 308.817C103.274 309.515 103.952 309.977 104.637 309.815C105.219 309.677 105.609 309.131 105.552 308.536L98.5151 236.655L93.1891 237.823Z" fill="#212336" stroke="#212336" stroke-miterlimit="10" stroke-linecap="round" stroke-linejoin="round"/>
<path d="M64.5001 238.404L47.8061 308.126C47.6421 308.812 48.1031 309.49 48.8011 309.59C49.3931 309.675 49.9561 309.31 50.1211 308.735L69.5001 241.07L64.5001 238.404Z" fill="#212336" stroke="#212336" stroke-miterlimit="10" stroke-linecap="round" stroke-linejoin="round"/>
<path d="M94.8141 237.542L84.1872 308.443C84.0832 309.14 84.6002 309.776 85.3042 309.815C85.9012 309.848 86.4312 309.436 86.5452 308.849L100.025 239.767L94.8141 237.542Z" fill="#212336" stroke="#212336" stroke-miterlimit="10" stroke-linecap="round" stroke-linejoin="round"/>
<path d="M123.522 237.823L133.509 308.817C133.607 309.515 134.285 309.977 134.97 309.815C135.552 309.677 135.942 309.131 135.885 308.536L128.848 236.655L123.522 237.823Z" fill="#212336" stroke="#212336" stroke-miterlimit="10" stroke-linecap="round" stroke-linejoin="round"/>
<path d="M48.8332 188.07C48.8332 188.07 45.8332 175.403 46.1662 168.403C46.4992 161.403 52.8332 152.403 70.4992 153.403C88.1652 154.403 97.4992 171.403 96.1662 185.07C94.8332 198.737 96.1662 225.403 105.499 231.07C114.832 236.737 135.832 232.737 135.832 232.737C135.832 232.737 138.832 233.404 136.499 235.737C134.166 238.07 114.832 241.404 105.166 242.737C97.7912 243.754 79.1652 243.219 70.7462 242.909C66.3822 242.748 62.1692 241.005 59.1862 237.816C58.0612 236.613 56.9982 235.155 56.1652 233.405C51.2692 223.118 48.8332 188.07 48.8332 188.07Z" fill="white"/>
<mask id="mask2_1578_16689" style="mask-type:luminance" maskUnits="userSpaceOnUse" x="46" y="153" width="92" height="91">
<path d="M48.8332 188.07C48.8332 188.07 45.8332 175.403 46.1662 168.403C46.4992 161.403 52.8332 152.403 70.4992 153.403C88.1652 154.403 97.4992 171.403 96.1662 185.07C94.8332 198.737 96.1662 225.403 105.499 231.07C114.832 236.737 135.832 232.737 135.832 232.737C135.832 232.737 138.832 233.404 136.499 235.737C134.166 238.07 114.832 241.404 105.166 242.737C97.7912 243.754 79.1652 243.219 70.7462 242.909C66.3822 242.748 62.1692 241.005 59.1862 237.816C58.0612 236.613 56.9982 235.155 56.1652 233.405C51.2692 223.118 48.8332 188.07 48.8332 188.07Z" fill="white"/>
</mask>
<g mask="url(#mask2_1578_16689)">
<path d="M105.167 242.737C107.534 242.41 110.483 241.964 113.618 241.441C109.492 241.079 105.59 240.283 102.693 238.768C92.2561 233.309 90.7651 207.618 92.2561 194.451C93.7471 181.284 83.3101 164.907 63.5551 163.943C56.1971 163.584 50.6001 164.563 46.4501 166.28C46.2951 167 46.2001 167.712 46.1671 168.404C45.8341 175.404 48.8341 188.071 48.8341 188.071C48.8341 188.071 51.2701 223.119 56.1671 233.404C57.0001 235.154 58.0631 236.612 59.1881 237.815C62.1701 241.004 66.3841 242.747 70.7481 242.908C79.1661 243.219 97.7922 243.754 105.167 242.737Z" fill="#3E54FB"/>
</g>
<mask id="mask3_1578_16689" style="mask-type:luminance" maskUnits="userSpaceOnUse" x="46" y="153" width="92" height="91">
<path d="M48.8332 188.07C48.8332 188.07 45.8332 175.403 46.1662 168.403C46.4992 161.403 52.8332 152.403 70.4992 153.403C88.1652 154.403 97.4992 171.403 96.1662 185.07C94.8332 198.737 96.1662 225.403 105.499 231.07C114.832 236.737 135.832 232.737 135.832 232.737C135.832 232.737 138.832 233.404 136.499 235.737C134.166 238.07 114.832 241.404 105.166 242.737C97.7912 243.754 79.1652 243.219 70.7462 242.909C66.3822 242.748 62.1692 241.005 59.1862 237.816C58.0612 236.613 56.9982 235.155 56.1652 233.405C51.2692 223.118 48.8332 188.07 48.8332 188.07Z" fill="white"/>
</mask>
<g mask="url(#mask3_1578_16689)">
<path opacity="0.5" d="M105.167 242.737C107.534 242.41 110.483 241.964 113.618 241.441C109.492 241.079 105.59 240.283 102.693 238.768C92.2561 233.309 90.7651 207.618 92.2561 194.451C93.7471 181.284 83.3101 164.907 63.5551 163.943C56.1971 163.584 50.6001 164.563 46.4501 166.28C46.2951 167 46.2001 167.712 46.1671 168.404C45.8341 175.404 48.8341 188.071 48.8341 188.071C48.8341 188.071 51.2701 223.119 56.1671 233.404C57.0001 235.154 58.0631 236.612 59.1881 237.815C62.1701 241.004 66.3841 242.747 70.7481 242.908C79.1661 243.219 97.7922 243.754 105.167 242.737Z" fill="white"/>
</g>
<path d="M48.8332 188.07C48.8332 188.07 45.8332 175.403 46.1662 168.403C46.4992 161.403 52.8332 152.403 70.4992 153.403C88.1652 154.403 97.4992 171.403 96.1662 185.07C94.8332 198.737 96.1662 225.403 105.499 231.07C114.832 236.737 135.832 232.737 135.832 232.737C135.832 232.737 138.832 233.404 136.499 235.737C134.166 238.07 114.832 241.404 105.166 242.737C97.7912 243.754 79.1652 243.219 70.7462 242.909C66.3822 242.748 62.1692 241.005 59.1862 237.816C58.0612 236.613 56.9982 235.155 56.1652 233.405C51.2692 223.118 48.8332 188.07 48.8332 188.07Z" stroke="#212336" stroke-miterlimit="10" stroke-linecap="round" stroke-linejoin="round"/>
<path d="M359.151 306.389H14.582V311.847H359.151V306.389Z" fill="#212336"/>
</svg>
